<?xml version="1.0" encoding="UTF-8"?> <svg xmlns="http://www.w3.org/2000/svg" width="1863" height="529" viewBox="0 0 1863 529" fill="none"> <path fill-rule="evenodd" clip-rule="evenodd" d="M1830.76 3.17961C1828.71 4.92861 1824.19 8.92761 1820.7 12.0676C1815.42 16.8326 1813.88 17.7126 1811.36 17.3946C1805.67 16.6746 1806.09 16.3646 1783.54 38.3036C1756.53 64.5766 1745.88 73.5666 1720.58 91.4236C1707.28 100.81 1676.39 121.493 1671.33 124.392C1670.37 124.942 1665.41 128.002 1660.31 131.191C1655.21 134.381 1650.15 137.531 1649.06 138.191C1647.97 138.852 1644.7 140.854 1641.79 142.642C1638.88 144.429 1636.32 145.892 1636.1 145.892C1635.75 145.892 1622.69 153.308 1618.54 155.862C1617.71 156.369 1615.01 157.886 1612.54 159.232C1610.06 160.577 1605.11 163.298 1601.54 165.277C1594.33 169.267 1542.41 195.167 1533.15 199.396C1524.65 203.273 1518.11 206.203 1517.54 206.394C1516.02 206.897 1510.78 209.189 1506.14 211.386C1503.23 212.764 1500.59 213.892 1500.27 213.892C1499.96 213.892 1497.53 214.868 1494.87 216.06C1492.21 217.253 1489.81 218.304 1489.54 218.397C1488.2 218.846 1484.73 220.237 1482.04 221.408C1478.11 223.11 1447.33 235.026 1446.04 235.344C1445.49 235.479 1444.14 235.918 1443.04 236.319C1441.94 236.721 1437.44 238.325 1433.04 239.885C1428.64 241.445 1422.11 243.765 1418.54 245.041C1414.96 246.316 1411.81 247.384 1411.54 247.413C1411.26 247.442 1405.41 249.319 1398.54 251.585C1388.01 255.053 1373.84 259.492 1370.04 260.508C1369.49 260.655 1368.14 261.026 1367.04 261.333C1338.02 269.419 1318.33 274.734 1314.54 275.499C1313.16 275.776 1307.76 277.078 1302.54 278.392C1293.41 280.686 1291.71 281.077 1285.04 282.394C1283.39 282.72 1280.46 283.394 1278.54 283.892C1276.61 284.39 1273.91 285.021 1272.54 285.294C1271.16 285.566 1269.14 285.978 1268.04 286.209C1266.94 286.439 1264.46 286.914 1262.54 287.264C1260.61 287.614 1258.02 288.123 1256.79 288.396C1255.55 288.669 1253.52 289.115 1252.29 289.388C1250.29 289.828 1245.95 290.647 1241.54 291.417C1240.71 291.561 1235.99 292.443 1231.04 293.377C1226.09 294.312 1220.91 295.228 1219.54 295.415C1218.16 295.602 1215.69 295.984 1214.04 296.265C1212.39 296.546 1209.02 297.065 1206.56 297.417C1204.09 297.769 1201.84 298.201 1201.56 298.377C1201.27 298.553 1198.61 299.005 1195.63 299.381C1192.66 299.757 1189.47 300.212 1188.54 300.392C1187.6 300.572 1184.41 301.01 1181.44 301.365C1178.47 301.721 1173.34 302.41 1170.04 302.897C1166.74 303.384 1161.34 304.04 1158.04 304.355C1154.74 304.67 1150.91 305.128 1149.54 305.372C1147.03 305.817 1142.24 306.349 1131.04 307.427C1127.74 307.745 1123.46 308.187 1121.54 308.409C1113.52 309.337 1098.36 310.594 1085.54 311.394C1080.31 311.721 1074.24 312.165 1072.04 312.381C1067.85 312.793 1047.47 313.773 1029.54 314.424C1015.06 314.95 942.173 314.941 930.536 314.412C891.781 312.65 878.643 311.887 861.036 310.375C858.286 310.139 852.661 309.677 848.536 309.349C844.411 309.021 839.461 308.583 837.536 308.377C835.611 308.17 831.111 307.726 827.536 307.389C823.961 307.053 819.686 306.613 818.036 306.413C816.386 306.212 812.336 305.763 809.036 305.415C805.736 305.067 799.436 304.315 795.036 303.744C790.636 303.173 785.686 302.537 784.036 302.331C769.424 300.506 744.374 296.94 742.536 296.424C741.711 296.193 738.786 295.762 736.036 295.467C733.286 295.172 727.514 294.248 723.209 293.414C718.904 292.579 713.729 291.677 711.709 291.41C709.689 291.143 706.911 290.687 705.536 290.398C701.699 289.59 697.298 288.769 694.536 288.346C693.161 288.135 690.911 287.717 689.536 287.417C688.161 287.117 685.911 286.656 684.536 286.392C683.161 286.128 681.136 285.724 680.036 285.494C678.936 285.264 670.836 283.657 662.036 281.923C653.236 280.19 645.361 278.615 644.536 278.423C643.711 278.232 636.511 276.667 628.536 274.946C620.561 273.224 612.461 271.389 610.536 270.867C608.611 270.345 601.186 268.551 594.036 266.881C586.886 265.21 580.136 263.604 579.036 263.312C577.936 263.019 571.861 261.426 565.536 259.771C539.822 253.043 529 250.13 523.536 248.465C521.061 247.711 514.311 245.667 508.536 243.922C496.445 240.27 493.261 239.271 477.536 234.202C471.211 232.163 465.586 230.379 465.036 230.238C463.821 229.926 450.455 225.23 437.536 220.577C420.432 214.416 411.212 210.856 399.504 205.892C393.161 203.203 383.036 198.998 377.004 196.548C364.25 191.366 328.521 174.518 314.036 166.853C295.82 157.215 294.106 156.291 284.536 150.956C267.238 141.313 245.3 127.255 249.036 128.207C251.509 128.838 257.334 129.83 262.294 130.464C264.352 130.728 272.163 132.071 279.652 133.448C287.141 134.826 294.791 136.192 296.652 136.485C298.513 136.777 300.936 137.179 302.036 137.379C303.136 137.578 305.836 138.026 308.036 138.374C310.236 138.722 316.635 139.873 322.257 140.934C327.878 141.994 334.178 143.086 336.257 143.361C338.335 143.635 341.161 144.099 342.536 144.391C343.911 144.683 346.386 145.107 348.036 145.335C349.686 145.562 357.336 146.9 365.036 148.307C372.736 149.715 380.836 151.127 383.036 151.446C385.236 151.764 395.586 153.564 406.036 155.444C416.486 157.325 426.836 159.119 429.036 159.429C431.236 159.74 438.886 161.069 446.036 162.383C458.47 164.668 463.933 165.597 469.633 166.395C471.061 166.595 477.136 167.663 483.133 168.77C489.129 169.876 495.836 171.065 498.036 171.412C500.236 171.758 502.936 172.206 504.036 172.405C505.136 172.605 507.561 173.007 509.425 173.3C511.288 173.593 520.288 175.178 529.425 176.824C599.175 189.386 602.073 189.778 607.017 187.315C616.379 182.651 617.136 166.776 608.423 157.844C602.726 152.003 602.165 151.78 578.036 145.738C573.636 144.637 568.943 143.522 567.606 143.261C563.916 142.542 563.53 142.037 564.574 139.291C567 132.912 564.46 120.466 560.161 117.657C558.401 116.508 561.175 116.726 570.036 118.435C586.785 121.666 595.016 116.248 593.07 103.273C591.346 91.7716 585.739 87.7976 565.687 83.8636C545.688 79.9396 503.05 72.1406 497.536 71.3976C495.061 71.0636 489.436 70.1406 485.036 69.3456C480.636 68.5506 475.011 67.6606 472.536 67.3676C470.061 67.0746 467.361 66.6426 466.536 66.4066C465.711 66.1716 462.561 65.7186 459.536 65.4006C456.511 65.0816 453.361 64.6246 452.536 64.3846C451.711 64.1446 449.011 63.7156 446.536 63.4316C444.061 63.1476 440.347 62.6446 438.283 62.3146C436.219 61.9846 433.519 61.5806 432.283 61.4166C429.112 60.9946 404.549 57.7566 401.536 57.3626C400.161 57.1836 396.786 56.7846 394.036 56.4766C391.286 56.1686 387.461 55.7146 385.536 55.4676C383.611 55.2206 379.538 54.7606 376.485 54.4446C371.847 53.9646 361.632 52.0086 355.536 50.4336C345.967 47.9606 284.398 35.9556 273.036 34.3466C270.836 34.0356 265.511 33.1326 261.202 32.3416C256.893 31.5496 250.818 30.6306 247.702 30.2996C244.586 29.9676 241.791 29.5456 241.491 29.3616C241.191 29.1776 238.491 28.7556 235.491 28.4236C232.491 28.0926 229.361 27.6356 228.536 27.4086C227.711 27.1816 224.561 26.7216 221.536 26.3856C214.198 25.5726 211.261 25.1866 206.789 24.4496C202.4 23.7256 198.14 23.1696 190.536 22.3306C187.511 21.9966 183.911 21.5786 182.536 21.4006C181.161 21.2236 176.436 20.6106 172.036 20.0396C167.636 19.4686 161.336 18.7166 158.036 18.3686C154.736 18.0206 150.686 17.5716 149.036 17.3706C147.386 17.1706 143.111 16.7406 139.536 16.4156C135.961 16.0906 131.911 15.6326 130.536 15.3976C128.207 14.9996 118.633 14.0396 110.536 13.3926C108.611 13.2386 104.111 12.8206 100.536 12.4656C87.5842 11.1756 64.7592 9.00761 57.0362 8.33361C53.7362 8.04561 49.2362 7.62261 47.0362 7.39461C44.8362 7.16761 38.5422 6.69661 33.0492 6.34861C27.5562 6.00061 22.7782 5.54161 22.4332 5.32761C18.6162 2.96861 5.95617 4.85761 2.84717 8.24961C-3.79283 15.4946 2.09617 36.3956 11.6302 39.4216C13.3312 39.9616 13.4412 40.3016 12.3392 41.6296C9.36817 45.2096 11.4022 58.1536 15.8012 63.6626C16.3592 64.3616 16.9542 66.4656 17.1222 68.3386C17.4572 72.0796 21.3042 80.2516 24.2082 83.3916C25.2252 84.4916 29.1902 89.4416 33.0182 94.3916C36.8462 99.3416 41.9592 105.867 44.3802 108.892C46.8012 111.917 50.1892 116.169 51.9092 118.34C53.6292 120.512 57.0742 124.787 59.5652 127.84C62.0562 130.894 64.9812 134.573 66.0652 136.016C68.4502 139.192 96.4692 173.913 97.9722 175.555C98.5572 176.194 101.286 179.532 104.036 182.972C109.597 189.928 117.867 200.052 126.027 209.892C139.523 226.166 154.214 243.825 158.057 248.392C160.371 251.142 164.71 256.317 167.699 259.892C170.687 263.467 175.811 269.569 179.084 273.451C182.358 277.334 188.409 284.534 192.532 289.451C196.655 294.369 204.755 303.831 210.532 310.479C216.309 317.127 227.561 330.128 235.536 339.37C243.511 348.612 256.786 363.834 265.036 373.197C273.286 382.56 281.606 392.06 283.525 394.307C286.4 397.672 319.578 434.789 323.017 438.487C328.901 444.813 341.941 459.237 344.629 462.391C346.503 464.591 348.486 466.894 349.036 467.51C349.586 468.125 352.511 471.69 355.536 475.432C358.561 479.174 363.521 485.196 366.559 488.814C369.596 492.432 373.636 497.417 375.536 499.892C383.352 510.075 386.7 512.748 399.785 519.255C411.004 524.833 421.564 518.095 421.512 505.392C421.486 498.954 419.306 494.276 409.933 480.548C402.317 469.392 402.317 469.392 413.494 480.892C419.641 487.217 428.578 496.643 433.353 501.838C452.778 522.97 454.546 524.65 459.664 526.852C474.78 533.355 486.3 518.714 478.234 503.249C476.625 500.162 460.468 478.351 413.618 416.016C400.648 398.759 389.361 383.685 388.536 382.518C386.578 379.749 373.079 361.859 360.235 345.015C354.626 337.657 349.136 330.398 348.036 328.884C345.619 325.556 319.118 290.757 309.966 278.892C306.359 274.217 298.262 263.642 291.972 255.392C285.681 247.142 277.375 236.342 273.513 231.392C269.651 226.442 265.489 220.975 264.263 219.242C261.031 214.672 240.889 188.255 236.166 182.392C233.95 179.642 238.697 183.917 246.713 191.892C292.277 237.221 328.008 266.333 381.036 301.331C395.308 310.75 410.845 320.456 418.036 324.442C420.236 325.661 425.861 328.817 430.536 331.454C441.745 337.776 467.357 351.219 475.536 355.073C496.431 364.919 501.372 367.166 514.536 372.81C522.511 376.23 532.636 380.54 537.036 382.389C550.651 388.11 574.576 396.88 590.536 401.999C595.761 403.676 601.611 405.649 603.536 406.386C608.493 408.282 620.701 411.975 643.536 418.487C646.561 419.349 650.273 420.445 651.786 420.921C653.299 421.398 654.536 421.571 654.536 421.305C654.536 421.039 655.366 421.266 656.381 421.809C657.396 422.352 659.309 423.008 660.631 423.266C661.954 423.524 666.861 424.707 671.536 425.895C683.477 428.929 690.935 430.687 699.036 432.377C702.886 433.18 707.161 434.113 708.536 434.452C714.833 436.001 767.627 445.867 772.465 446.399C775.45 446.726 778.15 447.151 778.465 447.341C778.779 447.532 781.961 448.005 785.536 448.392C789.111 448.779 792.267 449.236 792.549 449.407C792.831 449.577 795.756 450.004 799.049 450.354C802.342 450.705 806.611 451.193 808.536 451.44C815.756 452.365 819.135 452.82 822.536 453.326C825.968 453.837 835.11 454.777 843.036 455.434C855.475 456.464 860.397 456.913 863.536 457.301C865.461 457.539 872.211 458.039 878.536 458.412C884.861 458.786 891.244 459.235 892.72 459.41C907.532 461.173 990.203 461.865 1023.54 460.506C1051.44 459.368 1078.54 457.494 1097.54 455.389C1099.46 455.175 1103.74 454.74 1107.04 454.422C1110.34 454.104 1114.61 453.655 1116.54 453.424C1118.46 453.193 1122.57 452.738 1125.67 452.413C1128.77 452.088 1132.19 451.651 1133.27 451.443C1134.35 451.235 1137.62 450.762 1140.54 450.392C1143.45 450.022 1146.56 449.583 1147.44 449.416C1148.32 449.25 1151.29 448.815 1154.04 448.449C1156.79 448.084 1160.39 447.596 1162.04 447.366C1165.31 446.909 1176.77 446.039 1188.54 445.353C1192.66 445.113 1198.17 444.686 1200.79 444.404C1203.4 444.123 1207.67 443.681 1210.29 443.424C1212.9 443.166 1217.51 442.702 1220.54 442.392C1223.56 442.082 1228.06 441.632 1230.54 441.392C1237.73 440.694 1245.68 439.75 1247.8 439.341C1248.88 439.133 1252.3 438.69 1255.4 438.358C1258.5 438.025 1261.71 437.576 1262.54 437.36C1263.36 437.144 1266.29 436.691 1269.04 436.354C1276.65 435.418 1297.64 432.237 1302.54 431.276C1303.91 431.006 1306.39 430.556 1308.04 430.276C1309.69 429.996 1311.94 429.59 1313.04 429.375C1314.14 429.159 1316.39 428.732 1318.04 428.425C1319.69 428.118 1324.64 427.154 1329.04 426.283C1333.44 425.412 1338.16 424.512 1339.54 424.282C1340.91 424.053 1344.06 423.411 1346.54 422.854C1351.35 421.773 1354.53 421.091 1358.54 420.287C1359.91 420.01 1364.41 418.933 1368.54 417.892C1372.66 416.851 1377.16 415.774 1378.54 415.497C1380.89 415.025 1382.74 414.591 1387.54 413.392C1388.64 413.117 1390.44 412.667 1391.54 412.392C1392.64 412.117 1394.33 411.714 1395.29 411.497C1396.26 411.279 1399.07 410.529 1401.54 409.828C1407.23 408.217 1407.57 408.125 1410.29 407.45C1413.84 406.569 1415.38 406.133 1426.54 402.858C1432.31 401.163 1437.49 399.656 1438.04 399.508C1438.59 399.361 1442.41 398.184 1446.54 396.892C1450.66 395.6 1454.49 394.44 1455.04 394.314C1455.59 394.187 1463.01 391.772 1471.54 388.946C1484.68 384.588 1491.18 382.28 1507.04 376.339C1508.14 375.927 1509.54 375.481 1510.16 375.348C1510.78 375.215 1512.8 374.431 1514.66 373.606C1518.09 372.084 1521.63 370.791 1522.54 370.729C1522.81 370.71 1523.94 370.193 1525.04 369.579C1526.14 368.965 1527.26 368.408 1527.54 368.341C1528.35 368.143 1531.88 366.777 1534.04 365.83C1535.14 365.346 1540.99 362.867 1547.04 360.321C1553.09 357.775 1560.06 354.786 1562.54 353.678C1565.01 352.571 1569.06 350.764 1571.54 349.663C1586.82 342.867 1615.32 328.846 1631.04 320.392C1634.89 318.321 1640.96 315.058 1644.54 313.141C1648.11 311.224 1652.23 308.809 1653.69 307.774C1655.15 306.739 1656.62 305.892 1656.96 305.892C1657.3 305.892 1659.4 304.743 1661.62 303.338C1663.85 301.934 1667.1 299.978 1668.85 298.992C1671.96 297.241 1681.99 291.398 1685.35 289.379C1686.28 288.821 1690.11 286.571 1693.86 284.379C1705.17 277.771 1708.3 275.781 1725.54 264.242C1741.04 253.866 1741.88 253.278 1748.04 248.572C1750.79 246.469 1755.29 243.044 1758.04 240.96C1762.13 237.858 1784.7 217.715 1790.58 211.914C1830.63 172.408 1849.47 119.394 1841.12 69.7596C1839.33 59.1276 1839.33 59.1276 1846.64 49.7596C1862.19 29.8236 1863.84 26.4526 1861.51 19.2066C1856.82 4.58161 1839.62 -4.38339 1830.76 3.17961ZM1806.6 105.111C1803.88 119.256 1800.63 126.01 1800.55 117.676C1800.54 116.732 1799.8 114.41 1798.89 112.516C1797.25 109.073 1797.25 109.073 1802.12 103.546C1807.94 96.9516 1808.16 97.0276 1806.6 105.111ZM1794.92 137.909C1781.53 163.311 1750.72 194.781 1715.15 219.392C1713.56 220.492 1711.01 222.292 1709.5 223.392C1699.22 230.851 1674.22 247.671 1664.92 253.392C1662.24 255.042 1658.46 257.401 1656.54 258.635C1654.61 259.869 1652.36 261.187 1651.54 261.564C1650.71 261.941 1646.55 264.419 1642.3 267.071C1638.04 269.723 1634.35 271.892 1634.09 271.892C1633.83 271.892 1631.41 273.197 1628.7 274.793C1621.7 278.925 1614.51 282.872 1603.04 288.886C1597.54 291.769 1592.59 294.406 1592.04 294.745C1591.49 295.084 1590.81 295.4 1590.54 295.448C1590.26 295.496 1582.61 299.142 1573.54 303.551C1564.46 307.959 1555.24 312.359 1553.04 313.328C1550.84 314.297 1547.24 315.902 1545.04 316.895C1537.08 320.484 1531.27 322.891 1530.66 322.845C1530.09 322.803 1532.39 321.463 1543.41 315.392C1545.41 314.292 1554.36 308.892 1563.31 303.392C1572.26 297.892 1580.36 292.937 1581.31 292.381C1582.26 291.825 1585.74 289.589 1589.04 287.412C1592.34 285.235 1595.78 282.99 1596.69 282.423C1601.44 279.467 1617.43 268.422 1627.85 260.911C1634.35 256.226 1640.66 251.717 1641.87 250.892C1643.08 250.067 1646.73 247.367 1649.96 244.892C1653.2 242.417 1657.32 239.267 1659.12 237.892C1675.41 225.453 1699.39 205.514 1715.63 190.914C1724.53 182.903 1731.69 177.589 1752 163.892C1753.22 163.067 1755.81 161.267 1757.75 159.892C1759.69 158.517 1764.37 155.239 1768.16 152.607C1771.94 149.976 1776.84 146.473 1779.04 144.823C1781.24 143.173 1784.61 140.701 1786.54 139.329C1795.35 133.048 1797.08 131.664 1797.83 130.325C1801.11 124.475 1798.7 130.734 1794.92 137.909ZM327.036 217.067C330.336 219.014 336.043 222.268 339.717 224.298C346.374 227.974 347.412 230.554 343.928 234.768C343.562 235.211 309.829 208.175 308.927 206.715C308.588 206.167 311.174 207.475 314.674 209.622C318.173 211.769 323.736 215.119 327.036 217.067ZM630.179 311.453C639.033 313.486 646.651 315.177 659.036 317.86C664.536 319.052 669.936 320.225 671.036 320.468C672.136 320.71 673.936 321.107 675.036 321.35C679.567 322.349 725.266 330.966 728.036 331.343C733.42 332.075 738.943 332.958 744.036 333.9C746.786 334.408 751.061 335.079 753.536 335.389C756.011 335.7 759.161 336.174 760.536 336.443C761.911 336.712 764.611 337.129 766.536 337.369C768.461 337.609 771.611 338.064 773.536 338.379C775.461 338.695 778.386 339.123 780.036 339.329C781.686 339.536 786.636 340.195 791.036 340.793C803.638 342.505 808.14 343.065 819.786 344.367C822.123 344.629 825.836 345.049 828.036 345.302C830.236 345.554 835.411 346.035 839.536 346.371C843.661 346.707 848.161 347.169 849.536 347.397C852.205 347.841 860.077 348.533 873.036 349.465C877.436 349.781 883.061 350.187 885.536 350.368C888.011 350.548 894.761 350.984 900.536 351.336C906.311 351.688 913.286 352.166 916.036 352.397C940.966 354.494 1045.38 354.522 1070.04 352.438C1072.24 352.252 1079.46 351.806 1086.1 351.447C1092.73 351.088 1099.48 350.633 1101.1 350.437C1102.71 350.241 1108.31 349.786 1113.54 349.425C1118.76 349.064 1124.61 348.598 1126.54 348.388C1128.46 348.179 1133.19 347.725 1137.04 347.38C1140.89 347.035 1145.39 346.593 1147.04 346.399C1148.69 346.205 1154.77 345.537 1160.54 344.915C1166.31 344.293 1172.16 343.609 1173.54 343.396C1174.91 343.182 1178.06 342.731 1180.54 342.392C1183.01 342.053 1186.16 341.599 1187.54 341.383C1188.91 341.166 1192.06 340.746 1194.54 340.45C1197.01 340.153 1199.98 339.72 1201.13 339.488C1202.29 339.255 1205.62 338.762 1208.54 338.392C1211.45 338.022 1214.56 337.583 1215.44 337.416C1216.32 337.25 1219.26 336.815 1221.97 336.45C1224.68 336.085 1227.15 335.629 1227.47 335.437C1227.78 335.245 1230.47 334.779 1233.44 334.403C1236.41 334.027 1239.78 333.53 1240.94 333.3C1242.09 333.069 1245.74 332.436 1249.04 331.892C1252.34 331.348 1256.05 330.676 1257.29 330.398C1260.92 329.581 1262.83 329.194 1266.54 328.52C1271.4 327.636 1272.37 327.441 1287.04 324.402C1300.08 321.699 1301.83 321.319 1305.54 320.392C1310.32 319.195 1312.19 318.759 1314.54 318.286C1315.91 318.009 1321.3 316.705 1326.5 315.388C1331.71 314.072 1336.14 313.164 1336.35 313.372C1336.64 313.659 1324.46 317.766 1321.54 318.367C1321.26 318.424 1317.89 319.51 1314.04 320.781C1310.19 322.052 1306.36 323.247 1305.54 323.438C1304.71 323.628 1300.89 324.732 1297.04 325.892C1293.19 327.052 1289.36 328.154 1288.53 328.342C1287.71 328.529 1285.01 329.255 1282.53 329.956C1276.84 331.567 1276.5 331.659 1273.79 332.334C1270.69 333.102 1268.97 333.56 1262.04 335.454C1255.68 337.192 1253.56 337.703 1249.54 338.472C1248.16 338.735 1246.36 339.202 1245.54 339.51C1244.71 339.818 1242.91 340.277 1241.54 340.528C1240.16 340.78 1237.46 341.393 1235.54 341.89C1232.7 342.623 1220.95 345.094 1209.04 347.466C1207.94 347.685 1204.79 348.326 1202.04 348.892C1194.07 350.531 1192.39 350.846 1186.04 351.892C1182.74 352.436 1179.09 353.069 1177.94 353.3C1176.78 353.53 1173.41 354.027 1170.44 354.403C1167.47 354.779 1164.8 355.231 1164.52 355.407C1164.23 355.583 1161.98 356.015 1159.52 356.367C1157.05 356.719 1153.91 357.181 1152.54 357.392C1151.16 357.603 1148.01 358.053 1145.54 358.392C1143.06 358.731 1139.91 359.181 1138.54 359.392C1133.74 360.129 1119.15 361.858 1113.04 362.413C1111.39 362.562 1107.56 362.949 1104.54 363.271C1097.14 364.059 1082.43 365.325 1068.54 366.368C1032.31 369.087 953.338 369.137 918.536 366.463C916.061 366.272 909.986 365.819 905.036 365.454C900.086 365.09 894.011 364.584 891.536 364.331C889.061 364.078 884.561 363.639 881.536 363.356C878.511 363.073 874.236 362.641 872.036 362.398C869.836 362.154 865.561 361.709 862.536 361.409C859.511 361.109 855.461 360.64 853.536 360.367C851.611 360.093 848.236 359.65 846.036 359.382C843.836 359.115 840.461 358.693 838.536 358.444C836.611 358.196 832.786 357.72 830.036 357.387C827.286 357.054 822.786 356.371 820.036 355.87C817.286 355.369 813.011 354.697 810.536 354.376C808.061 354.054 802.42 353.13 798 352.321C793.58 351.513 788.63 350.672 787 350.453C783.86 350.032 779.661 349.267 775.536 348.367C773.281 347.875 771.398 347.526 765.036 346.42C763.936 346.229 761.911 345.838 760.536 345.55C753.404 344.058 732.216 339.519 726.536 338.267C722.961 337.479 719.136 336.642 718.036 336.408C716.936 336.175 712.436 335.084 708.036 333.986C703.636 332.887 698.806 331.772 697.302 331.509C695.799 331.246 694.186 330.794 693.718 330.505C693.25 330.216 691.556 329.741 689.952 329.451C688.348 329.161 683.998 328.048 680.286 326.978C676.574 325.908 673.536 325.242 673.536 325.498C673.536 325.753 672.717 325.524 671.715 324.988C670.714 324.452 666.326 323.055 661.965 321.884C657.604 320.713 652.011 319.163 649.536 318.44C647.061 317.717 640.086 315.696 634.036 313.948C627.986 312.2 622.586 310.281 622.036 309.684C621.356 308.946 621.402 308.803 622.179 309.238C622.808 309.59 626.408 310.587 630.179 311.453ZM479.725 317.744C488.353 321.609 497.353 325.443 499.725 326.265C502.096 327.087 508.986 329.854 515.036 332.414C528.527 338.122 540.239 342.608 575.036 355.395C585.723 359.322 628.367 373.996 630.036 374.321C630.877 374.485 649.189 380.165 657.536 382.851C658.911 383.294 662.736 384.449 666.036 385.419C669.336 386.388 673.724 387.788 675.786 388.529C677.849 389.27 679.536 389.658 679.536 389.392C679.536 389.126 681.224 389.535 683.286 390.301C685.349 391.066 689.186 392.25 691.815 392.93C694.443 393.611 696.423 394.338 696.215 394.546C695.851 394.91 687.933 393.264 678.536 390.871C676.061 390.241 673.332 389.579 672.471 389.401C669.064 388.697 656.866 385.666 654.036 384.819C652.386 384.326 646.986 382.779 642.036 381.382C637.086 379.985 630.561 378.142 627.536 377.287C624.511 376.432 620.911 375.312 619.536 374.799C618.161 374.285 616.136 373.681 615.036 373.455C613.936 373.23 611.011 372.338 608.536 371.474C606.061 370.609 599.986 368.56 595.036 366.92C590.086 365.28 583.661 363.062 580.758 361.991C577.855 360.92 575.25 360.053 574.969 360.065C574.293 360.092 561.243 355.023 544.536 348.244C537.111 345.231 530.361 342.615 529.536 342.431C527.488 341.973 502.875 330.951 493.036 326.086C488.636 323.911 482.111 320.761 478.536 319.086C471.782 315.921 459.91 309.34 462.536 310.216C463.361 310.491 471.096 313.878 479.725 317.744ZM1319.27 369.488C1318.79 369.972 1306.87 373.739 1300.54 375.41C1299.71 375.628 1293.41 377.428 1286.54 379.412C1279.66 381.395 1273.25 383.214 1272.29 383.455C1271.32 383.695 1269.75 384.106 1268.79 384.368C1264.78 385.458 1246.85 389.964 1244.54 390.461C1243.16 390.757 1238.66 391.851 1234.54 392.892C1230.41 393.933 1225.72 395.018 1224.11 395.304C1220.27 395.985 1211.18 397.86 1204.29 399.392C1200.19 400.301 1186.1 402.955 1182.54 403.486C1180.61 403.773 1178.36 404.197 1177.54 404.427C1176.71 404.657 1174.24 405.107 1172.04 405.427C1169.84 405.747 1167.36 406.191 1166.54 406.414C1160.21 408.125 1152.66 408.719 1128.54 409.403C1117.26 409.723 1107.05 410.19 1105.85 410.442C1104.64 410.694 1103.38 410.448 1103.04 409.896C1102.66 409.287 1104.11 408.865 1106.73 408.823C1109.1 408.785 1112.39 408.584 1114.04 408.376C1116.86 408.021 1121.69 407.449 1131.04 406.364C1138.49 405.498 1144.03 404.801 1146.54 404.412C1150.93 403.729 1155.9 403.017 1161.04 402.335C1163.79 401.969 1166.94 401.493 1168.04 401.275C1169.14 401.058 1172.96 400.414 1176.54 399.844C1180.11 399.273 1184.16 398.601 1185.54 398.349C1186.91 398.098 1190.74 397.445 1194.04 396.898C1197.34 396.351 1200.94 395.729 1202.04 395.516C1203.14 395.302 1206.06 394.764 1208.54 394.319C1211.01 393.874 1213.26 393.457 1213.54 393.392C1213.81 393.327 1216.06 392.91 1218.54 392.465C1222.85 391.689 1224.45 391.367 1228.29 390.494C1229.25 390.275 1235.89 388.884 1243.04 387.402C1256.08 384.699 1257.83 384.319 1261.54 383.392C1267.2 381.977 1268.23 381.738 1270.54 381.308C1271.91 381.053 1282.94 378.2 1295.04 374.968C1316.84 369.147 1320.43 368.335 1319.27 369.488ZM351.198 411.033C363.895 425.412 365.878 427.884 365.231 428.531C364.492 429.269 359.592 424.39 354.934 418.277C352.79 415.464 348.666 410.177 345.769 406.527C337.957 396.685 340.096 398.461 351.198 411.033Z" fill="black"></path> </svg> 