<svg width="1863" height="528" viewBox="0 0 1863 528" fill="none" xmlns="http://www.w3.org/2000/svg">
<path fill-rule="evenodd" clip-rule="evenodd" d="M1830.75 525.256C1828.7 523.507 1824.18 519.508 1820.69 516.368C1815.41 511.603 1813.87 510.723 1811.35 511.041C1805.66 511.761 1806.08 512.071 1783.53 490.132C1756.52 463.859 1745.87 454.869 1720.57 437.012C1707.27 427.626 1676.38 406.943 1671.32 404.044C1670.36 403.494 1665.4 400.434 1660.3 397.245C1655.2 394.055 1650.14 390.905 1649.05 390.245C1647.96 389.584 1644.69 387.582 1641.78 385.794C1638.87 384.007 1636.31 382.544 1636.09 382.544C1635.74 382.544 1622.68 375.128 1618.53 372.574C1617.7 372.067 1615 370.55 1612.53 369.204C1610.05 367.859 1605.1 365.138 1601.53 363.159C1594.32 359.169 1542.4 333.269 1533.14 329.04C1524.64 325.163 1518.1 322.233 1517.53 322.042C1516.01 321.539 1510.77 319.247 1506.13 317.05C1503.22 315.672 1500.58 314.544 1500.26 314.544C1499.95 314.544 1497.52 313.568 1494.86 312.376C1492.2 311.183 1489.8 310.132 1489.53 310.039C1488.19 309.59 1484.72 308.199 1482.03 307.028C1478.1 305.326 1447.32 293.41 1446.03 293.092C1445.48 292.957 1444.13 292.518 1443.03 292.117C1441.93 291.715 1437.43 290.111 1433.03 288.551C1428.63 286.991 1422.1 284.671 1418.53 283.395C1414.95 282.12 1411.8 281.052 1411.53 281.023C1411.25 280.994 1405.4 279.117 1398.53 276.851C1388 273.383 1373.83 268.944 1370.03 267.928C1369.48 267.781 1368.13 267.41 1367.03 267.103C1338.01 259.017 1318.32 253.702 1314.53 252.937C1313.15 252.66 1307.75 251.358 1302.53 250.044C1293.4 247.75 1291.7 247.359 1285.03 246.042C1283.38 245.716 1280.45 245.042 1278.53 244.544C1276.6 244.046 1273.9 243.415 1272.53 243.142C1271.15 242.87 1269.13 242.458 1268.03 242.227C1266.93 241.997 1264.45 241.522 1262.53 241.172C1260.6 240.822 1258.01 240.313 1256.78 240.04C1255.54 239.767 1253.51 239.321 1252.28 239.048C1250.28 238.608 1245.94 237.789 1241.53 237.019C1240.7 236.875 1235.98 235.993 1231.03 235.059C1226.08 234.124 1220.9 233.208 1219.53 233.021C1218.15 232.834 1215.68 232.452 1214.03 232.171C1212.38 231.89 1209.01 231.371 1206.55 231.019C1204.08 230.667 1201.83 230.235 1201.55 230.059C1201.26 229.883 1198.6 229.431 1195.62 229.055C1192.65 228.679 1189.46 228.224 1188.53 228.044C1187.59 227.864 1184.4 227.426 1181.43 227.071C1178.46 226.715 1173.33 226.026 1170.03 225.539C1166.73 225.052 1161.33 224.396 1158.03 224.081C1154.73 223.766 1150.9 223.308 1149.53 223.064C1147.02 222.619 1142.23 222.087 1131.03 221.009C1127.73 220.691 1123.45 220.249 1121.53 220.027C1113.51 219.099 1098.35 217.842 1085.53 217.042C1080.3 216.715 1074.23 216.271 1072.03 216.055C1067.84 215.643 1047.46 214.663 1029.53 214.012C1015.05 213.486 942.159 213.495 930.522 214.024C891.767 215.786 878.629 216.549 861.022 218.061C858.272 218.297 852.647 218.759 848.522 219.087C844.397 219.415 839.447 219.853 837.522 220.059C835.597 220.266 831.097 220.71 827.522 221.047C823.947 221.383 819.672 221.823 818.022 222.023C816.372 222.224 812.322 222.673 809.022 223.021C805.722 223.369 799.422 224.121 795.022 224.692C790.622 225.263 785.672 225.899 784.022 226.105C769.41 227.93 744.36 231.496 742.522 232.012C741.697 232.243 738.772 232.674 736.022 232.969C733.272 233.264 727.5 234.188 723.195 235.022C718.89 235.857 713.715 236.759 711.695 237.026C709.675 237.293 706.897 237.749 705.522 238.038C701.685 238.846 697.284 239.667 694.522 240.09C693.147 240.301 690.897 240.719 689.522 241.019C688.147 241.319 685.897 241.78 684.522 242.044C683.147 242.308 681.122 242.712 680.022 242.942C678.922 243.172 670.822 244.779 662.022 246.513C653.222 248.246 645.347 249.821 644.522 250.013C643.697 250.204 636.497 251.769 628.522 253.49C620.547 255.212 612.447 257.047 610.522 257.569C608.597 258.091 601.172 259.885 594.022 261.555C586.872 263.226 580.122 264.832 579.022 265.124C577.922 265.417 571.847 267.01 565.522 268.665C539.808 275.393 528.986 278.306 523.522 279.971C521.047 280.725 514.297 282.769 508.522 284.514C496.431 288.166 493.247 289.165 477.522 294.234C471.197 296.273 465.572 298.056 465.022 298.197C463.807 298.509 450.441 303.206 437.522 307.859C420.418 314.02 411.198 317.579 399.49 322.543C393.147 325.232 383.022 329.437 376.99 331.887C364.236 337.069 328.507 353.917 314.022 361.582C295.806 371.22 294.092 372.144 284.522 377.479C267.224 387.122 245.286 401.18 249.022 400.228C251.495 399.597 257.32 398.605 262.28 397.971C264.338 397.707 272.149 396.364 279.638 394.987C287.127 393.609 294.777 392.243 296.638 391.95C298.499 391.658 300.922 391.256 302.022 391.056C303.122 390.857 305.822 390.409 308.022 390.061C310.222 389.713 316.621 388.562 322.243 387.501C327.864 386.441 334.164 385.349 336.243 385.074C338.321 384.8 341.147 384.336 342.522 384.044C343.897 383.752 346.372 383.328 348.022 383.1C349.672 382.873 357.322 381.535 365.022 380.128C372.722 378.72 380.822 377.308 383.022 376.989C385.222 376.671 395.572 374.871 406.022 372.991C416.472 371.11 426.822 369.316 429.022 369.006C431.222 368.695 438.872 367.367 446.022 366.053C458.456 363.768 463.919 362.839 469.619 362.041C471.047 361.841 477.122 360.773 483.119 359.666C489.115 358.56 495.822 357.371 498.022 357.024C500.222 356.678 502.922 356.23 504.022 356.031C505.122 355.831 507.547 355.429 509.411 355.136C511.274 354.843 520.274 353.258 529.411 351.612C599.161 339.05 602.059 338.658 607.003 341.121C616.365 345.785 617.122 361.66 608.409 370.592C602.712 376.433 602.151 376.656 578.022 382.698C573.622 383.799 568.929 384.914 567.592 385.175C563.902 385.894 563.516 386.399 564.56 389.145C566.986 395.524 564.446 407.97 560.147 410.779C558.387 411.928 561.161 411.71 570.022 410.001C586.771 406.77 595.002 412.188 593.056 425.163C591.332 436.664 585.725 440.638 565.673 444.572C545.674 448.496 503.036 456.295 497.522 457.038C495.047 457.372 489.422 458.295 485.022 459.09C480.622 459.885 474.997 460.775 472.522 461.068C470.047 461.361 467.347 461.793 466.522 462.029C465.697 462.264 462.547 462.717 459.522 463.035C456.497 463.354 453.347 463.811 452.522 464.051C451.697 464.291 448.997 464.72 446.522 465.004C444.047 465.288 440.333 465.791 438.269 466.121C436.205 466.451 433.505 466.855 432.269 467.019C429.098 467.441 404.535 470.679 401.522 471.073C400.147 471.252 396.772 471.651 394.022 471.959C391.272 472.267 387.447 472.721 385.522 472.968C383.597 473.215 379.524 473.675 376.471 473.991C371.833 474.471 361.618 476.427 355.522 478.002C345.953 480.475 284.384 492.48 273.022 494.089C270.822 494.4 265.497 495.303 261.188 496.094C256.879 496.886 250.804 497.805 247.688 498.136C244.572 498.468 241.777 498.89 241.477 499.074C241.177 499.258 238.477 499.68 235.477 500.012C232.477 500.343 229.347 500.8 228.522 501.027C227.697 501.254 224.547 501.714 221.522 502.05C214.184 502.863 211.247 503.249 206.775 503.986C202.386 504.71 198.126 505.266 190.522 506.105C187.497 506.439 183.897 506.857 182.522 507.035C181.147 507.212 176.422 507.825 172.022 508.396C167.622 508.967 161.322 509.719 158.022 510.067C154.722 510.415 150.672 510.864 149.022 511.065C147.372 511.265 143.097 511.695 139.522 512.02C135.947 512.345 131.897 512.803 130.522 513.038C128.193 513.436 118.619 514.396 110.522 515.043C108.597 515.197 104.097 515.615 100.522 515.97C87.57 517.26 64.745 519.428 57.022 520.102C53.722 520.39 49.222 520.813 47.022 521.041C44.822 521.268 38.528 521.739 33.035 522.087C27.542 522.435 22.764 522.894 22.419 523.108C18.602 525.467 5.94201 523.578 2.83301 520.186C-3.80699 512.941 2.08202 492.04 11.616 489.014C13.317 488.474 13.427 488.134 12.325 486.806C9.35402 483.226 11.388 470.282 15.787 464.773C16.3451 464.074 16.94 461.97 17.108 460.097C17.4431 456.356 21.2901 448.184 24.1941 445.044C25.2111 443.944 29.1761 438.994 33.0041 434.044C36.8321 429.094 41.9451 422.568 44.3661 419.543C46.7871 416.518 50.1751 412.266 51.8951 410.095C53.6151 407.923 57.0601 403.648 59.5511 400.595C62.0421 397.541 64.9671 393.862 66.0511 392.419C68.4361 389.243 96.4551 354.522 97.9581 352.88C98.5431 352.241 101.272 348.903 104.022 345.463C109.583 338.507 117.853 328.383 126.013 318.543C139.509 302.269 154.2 284.61 158.043 280.043C160.357 277.293 164.696 272.118 167.685 268.543C170.673 264.968 175.797 258.866 179.07 254.984C182.344 251.101 188.395 243.901 192.518 238.984C196.641 234.066 204.741 224.604 210.518 217.956C216.295 211.308 227.547 198.307 235.522 189.065C243.497 179.823 256.772 164.601 265.022 155.238C273.272 145.875 281.592 136.375 283.511 134.128C286.386 130.763 319.564 93.6465 323.003 89.9485C328.887 83.6225 341.927 69.1985 344.615 66.0445C346.489 63.8445 348.472 61.5415 349.022 60.9255C349.572 60.3105 352.497 56.7455 355.522 53.0035C358.547 49.2615 363.507 43.2395 366.545 39.6215C369.582 36.0035 373.622 31.0185 375.522 28.5435C383.338 18.3605 386.686 15.6875 399.771 9.18049C410.99 3.60249 421.55 10.3405 421.498 23.0435C421.472 29.4815 419.292 34.1595 409.919 47.8875C402.303 59.0435 402.303 59.0435 413.48 47.5435C419.627 41.2185 428.564 31.7925 433.339 26.5975C452.764 5.46549 454.532 3.78551 459.65 1.58352C474.766 -4.91948 486.286 9.72152 478.22 25.1865C476.611 28.2735 460.454 50.0845 413.604 112.42C400.634 129.677 389.347 144.75 388.522 145.917C386.564 148.686 373.065 166.576 360.221 183.42C354.612 190.778 349.122 198.037 348.022 199.551C345.605 202.879 319.104 237.678 309.952 249.543C306.345 254.218 298.248 264.793 291.958 273.043C285.667 281.293 277.361 292.093 273.499 297.043C269.637 301.993 265.475 307.46 264.249 309.193C261.017 313.763 240.875 340.18 236.152 346.043C233.936 348.793 238.683 344.518 246.699 336.543C292.263 291.214 327.994 262.102 381.022 227.104C395.294 217.686 410.831 207.98 418.022 203.994C420.222 202.775 425.847 199.618 430.522 196.981C441.731 190.659 467.343 177.217 475.522 173.363C496.417 163.517 501.358 161.27 514.522 155.626C522.497 152.206 532.622 147.896 537.022 146.047C550.637 140.326 574.562 131.556 590.522 126.437C595.747 124.76 601.597 122.787 603.522 122.05C608.479 120.154 620.687 116.461 643.522 109.949C646.547 109.087 650.259 107.991 651.772 107.515C653.285 107.038 654.522 106.865 654.522 107.131C654.522 107.397 655.352 107.17 656.367 106.627C657.382 106.084 659.295 105.428 660.617 105.17C661.94 104.912 666.847 103.729 671.522 102.541C683.463 99.5066 690.921 97.7485 699.022 96.0585C702.872 95.2555 707.147 94.3226 708.522 93.9836C714.819 92.4346 767.613 82.5686 772.451 82.0366C775.436 81.7096 778.136 81.2846 778.451 81.0946C778.765 80.9036 781.947 80.4306 785.522 80.0436C789.097 79.6566 792.253 79.1996 792.535 79.0286C792.817 78.8586 795.742 78.4316 799.035 78.0816C802.328 77.7306 806.597 77.2426 808.522 76.9956C815.742 76.0706 819.121 75.6156 822.522 75.1096C825.954 74.5986 835.096 73.6586 843.022 73.0016C855.461 71.9716 860.383 71.5226 863.522 71.1346C865.447 70.8966 872.197 70.3966 878.522 70.0236C884.847 69.6496 891.23 69.2006 892.706 69.0256C907.518 67.2626 990.189 66.5706 1023.53 67.9296C1051.43 69.0676 1078.53 70.9416 1097.53 73.0466C1099.45 73.2606 1103.73 73.6956 1107.03 74.0136C1110.33 74.3316 1114.6 74.7806 1116.53 75.0116C1118.45 75.2426 1122.56 75.6976 1125.66 76.0226C1128.76 76.3476 1132.18 76.7846 1133.26 76.9926C1134.34 77.2006 1137.61 77.6736 1140.53 78.0436C1143.44 78.4136 1146.55 78.8526 1147.43 79.0196C1148.31 79.1856 1151.28 79.6206 1154.03 79.9866C1156.78 80.3516 1160.38 80.8396 1162.03 81.0696C1165.3 81.5266 1176.76 82.3966 1188.53 83.0826C1192.65 83.3226 1198.16 83.7496 1200.78 84.0316C1203.39 84.3126 1207.66 84.7546 1210.28 85.0116C1212.89 85.2696 1217.5 85.7336 1220.53 86.0436C1223.55 86.3536 1228.05 86.8036 1230.53 87.0436C1237.72 87.7416 1245.67 88.6856 1247.79 89.0946C1248.87 89.3026 1252.29 89.7456 1255.39 90.0776C1258.49 90.4106 1261.7 90.8597 1262.53 91.0757C1263.35 91.2917 1266.28 91.7446 1269.03 92.0816C1276.64 93.0176 1297.63 96.1987 1302.53 97.1597C1303.9 97.4297 1306.38 97.8797 1308.03 98.1597C1309.68 98.4397 1311.93 98.8457 1313.03 99.0607C1314.13 99.2767 1316.38 99.7037 1318.03 100.011C1319.68 100.318 1324.63 101.282 1329.03 102.153C1333.43 103.024 1338.15 103.924 1339.53 104.154C1340.9 104.383 1344.05 105.025 1346.53 105.582C1351.34 106.663 1354.52 107.345 1358.53 108.149C1359.9 108.426 1364.4 109.503 1368.53 110.544C1372.65 111.585 1377.15 112.662 1378.53 112.939C1380.88 113.411 1382.73 113.845 1387.53 115.044C1388.63 115.319 1390.43 115.769 1391.53 116.044C1392.63 116.319 1394.32 116.722 1395.28 116.939C1396.25 117.157 1399.06 117.907 1401.53 118.608C1407.22 120.219 1407.56 120.311 1410.28 120.986C1413.83 121.867 1415.37 122.303 1426.53 125.578C1432.3 127.273 1437.48 128.78 1438.03 128.928C1438.58 129.075 1442.4 130.252 1446.53 131.544C1450.65 132.836 1454.48 133.996 1455.03 134.122C1455.58 134.249 1463 136.664 1471.53 139.49C1484.67 143.848 1491.17 146.156 1507.03 152.097C1508.13 152.509 1509.53 152.955 1510.15 153.088C1510.77 153.221 1512.79 154.005 1514.65 154.83C1518.08 156.352 1521.62 157.645 1522.53 157.707C1522.8 157.726 1523.93 158.243 1525.03 158.857C1526.13 159.471 1527.25 160.028 1527.53 160.095C1528.34 160.293 1531.87 161.659 1534.03 162.606C1535.13 163.09 1540.98 165.569 1547.03 168.115C1553.08 170.661 1560.05 173.65 1562.53 174.758C1565 175.865 1569.05 177.672 1571.53 178.773C1586.81 185.569 1615.31 199.59 1631.03 208.044C1634.88 210.115 1640.95 213.378 1644.53 215.295C1648.1 217.212 1652.22 219.627 1653.68 220.662C1655.14 221.697 1656.61 222.544 1656.95 222.544C1657.29 222.544 1659.39 223.693 1661.61 225.098C1663.84 226.502 1667.09 228.458 1668.84 229.444C1671.95 231.195 1681.98 237.038 1685.34 239.057C1686.27 239.615 1690.1 241.865 1693.85 244.057C1705.16 250.665 1708.29 252.655 1725.53 264.194C1741.03 274.57 1741.87 275.158 1748.03 279.864C1750.78 281.967 1755.28 285.392 1758.03 287.476C1762.12 290.578 1784.69 310.721 1790.57 316.522C1830.62 356.028 1849.46 409.042 1841.11 458.676C1839.32 469.308 1839.32 469.308 1846.63 478.676C1862.18 498.612 1863.83 501.983 1861.5 509.229C1856.81 523.854 1839.61 532.819 1830.75 525.256ZM1806.59 423.325C1803.87 409.18 1800.62 402.426 1800.54 410.76C1800.53 411.704 1799.79 414.026 1798.88 415.92C1797.24 419.363 1797.24 419.363 1802.11 424.89C1807.93 431.484 1808.15 431.408 1806.59 423.325ZM1794.91 390.527C1781.52 365.125 1750.71 333.655 1715.14 309.044C1713.55 307.944 1711 306.144 1709.49 305.044C1699.21 297.585 1674.21 280.765 1664.91 275.044C1662.23 273.394 1658.45 271.035 1656.53 269.801C1654.6 268.567 1652.35 267.249 1651.53 266.872C1650.7 266.495 1646.54 264.017 1642.29 261.365C1638.03 258.713 1634.34 256.544 1634.08 256.544C1633.82 256.544 1631.4 255.239 1628.69 253.643C1621.69 249.511 1614.5 245.564 1603.03 239.55C1597.53 236.667 1592.58 234.03 1592.03 233.691C1591.48 233.352 1590.8 233.036 1590.53 232.988C1590.25 232.94 1582.6 229.294 1573.53 224.885C1564.45 220.477 1555.23 216.077 1553.03 215.108C1550.83 214.139 1547.23 212.534 1545.03 211.541C1537.07 207.952 1531.26 205.545 1530.65 205.591C1530.08 205.633 1532.38 206.973 1543.4 213.044C1545.4 214.144 1554.35 219.544 1563.3 225.044C1572.25 230.544 1580.35 235.499 1581.3 236.055C1582.25 236.611 1585.73 238.847 1589.03 241.024C1592.33 243.201 1595.77 245.446 1596.68 246.013C1601.43 248.969 1617.42 260.014 1627.84 267.525C1634.34 272.21 1640.65 276.719 1641.86 277.544C1643.07 278.369 1646.72 281.069 1649.95 283.544C1653.19 286.019 1657.31 289.169 1659.11 290.544C1675.4 302.983 1699.38 322.922 1715.62 337.522C1724.52 345.533 1731.68 350.847 1751.99 364.544C1753.21 365.369 1755.8 367.169 1757.74 368.544C1759.68 369.919 1764.36 373.197 1768.15 375.829C1771.93 378.46 1776.83 381.963 1779.03 383.613C1781.23 385.263 1784.6 387.735 1786.53 389.107C1795.34 395.388 1797.07 396.772 1797.82 398.111C1801.1 403.961 1798.69 397.702 1794.91 390.527ZM327.022 311.368C330.322 309.421 336.029 306.167 339.703 304.137C346.36 300.461 347.398 297.881 343.914 293.667C343.548 293.224 309.815 320.26 308.913 321.72C308.574 322.268 311.16 320.96 314.66 318.813C318.159 316.666 323.722 313.316 327.022 311.368ZM630.165 216.983C639.019 214.95 646.637 213.259 659.022 210.576C664.522 209.384 669.922 208.211 671.022 207.968C672.122 207.726 673.922 207.329 675.022 207.086C679.553 206.087 725.252 197.47 728.022 197.093C733.406 196.361 738.929 195.478 744.022 194.536C746.772 194.028 751.047 193.357 753.522 193.047C755.997 192.736 759.147 192.262 760.522 191.993C761.897 191.724 764.597 191.307 766.522 191.067C768.447 190.827 771.597 190.372 773.522 190.057C775.447 189.741 778.372 189.313 780.022 189.107C781.672 188.9 786.622 188.241 791.022 187.643C803.624 185.931 808.126 185.371 819.772 184.069C822.109 183.807 825.822 183.387 828.022 183.134C830.222 182.882 835.397 182.401 839.522 182.065C843.647 181.729 848.147 181.267 849.522 181.039C852.191 180.595 860.063 179.903 873.022 178.971C877.422 178.655 883.047 178.249 885.522 178.068C887.997 177.888 894.747 177.452 900.522 177.1C906.297 176.748 913.272 176.27 916.022 176.039C940.952 173.942 1045.37 173.914 1070.03 175.998C1072.23 176.184 1079.45 176.63 1086.09 176.989C1092.72 177.348 1099.47 177.803 1101.09 177.999C1102.7 178.195 1108.3 178.65 1113.53 179.011C1118.75 179.372 1124.6 179.838 1126.53 180.048C1128.45 180.257 1133.18 180.711 1137.03 181.056C1140.88 181.401 1145.38 181.843 1147.03 182.037C1148.68 182.231 1154.76 182.899 1160.53 183.521C1166.3 184.143 1172.15 184.827 1173.53 185.04C1174.9 185.254 1178.05 185.705 1180.53 186.044C1183 186.383 1186.15 186.837 1187.53 187.053C1188.9 187.27 1192.05 187.69 1194.53 187.986C1197 188.283 1199.97 188.716 1201.12 188.948C1202.28 189.181 1205.61 189.674 1208.53 190.044C1211.44 190.414 1214.55 190.853 1215.43 191.02C1216.31 191.186 1219.25 191.621 1221.96 191.986C1224.67 192.351 1227.14 192.807 1227.46 192.999C1227.77 193.191 1230.46 193.657 1233.43 194.033C1236.4 194.409 1239.77 194.906 1240.93 195.136C1242.08 195.367 1245.73 196 1249.03 196.544C1252.33 197.088 1256.04 197.76 1257.28 198.038C1260.91 198.855 1262.82 199.242 1266.53 199.916C1271.39 200.8 1272.36 200.995 1287.03 204.034C1300.07 206.737 1301.82 207.117 1305.53 208.044C1310.31 209.241 1312.18 209.677 1314.53 210.15C1315.9 210.427 1321.29 211.731 1326.49 213.048C1331.7 214.364 1336.13 215.272 1336.34 215.064C1336.63 214.777 1324.45 210.67 1321.53 210.069C1321.25 210.012 1317.88 208.926 1314.03 207.655C1310.18 206.384 1306.35 205.189 1305.53 204.998C1304.7 204.808 1300.88 203.704 1297.03 202.544C1293.18 201.384 1289.35 200.282 1288.52 200.094C1287.7 199.907 1285 199.181 1282.52 198.48C1276.83 196.869 1276.49 196.777 1273.78 196.102C1270.68 195.334 1268.96 194.876 1262.03 192.982C1255.67 191.244 1253.55 190.733 1249.53 189.964C1248.15 189.701 1246.35 189.234 1245.53 188.926C1244.7 188.618 1242.9 188.159 1241.53 187.908C1240.15 187.656 1237.45 187.043 1235.53 186.546C1232.69 185.813 1220.94 183.342 1209.03 180.97C1207.93 180.751 1204.78 180.11 1202.03 179.544C1194.06 177.905 1192.38 177.59 1186.03 176.544C1182.73 176 1179.08 175.367 1177.93 175.136C1176.77 174.906 1173.4 174.409 1170.43 174.033C1167.46 173.657 1164.79 173.205 1164.51 173.029C1164.22 172.853 1161.97 172.421 1159.51 172.069C1157.04 171.717 1153.9 171.255 1152.53 171.044C1151.15 170.833 1148 170.383 1145.53 170.044C1143.05 169.705 1139.9 169.255 1138.53 169.044C1133.73 168.307 1119.14 166.578 1113.03 166.023C1111.38 165.874 1107.55 165.487 1104.53 165.165C1097.13 164.377 1082.42 163.111 1068.53 162.068C1032.3 159.349 953.324 159.299 918.522 161.973C916.047 162.164 909.972 162.617 905.022 162.982C900.072 163.346 893.997 163.852 891.522 164.105C889.047 164.358 884.547 164.797 881.522 165.08C878.497 165.363 874.222 165.795 872.022 166.038C869.822 166.282 865.547 166.727 862.522 167.027C859.497 167.327 855.447 167.796 853.522 168.069C851.597 168.343 848.222 168.786 846.022 169.054C843.822 169.321 840.447 169.743 838.522 169.992C836.597 170.24 832.772 170.716 830.022 171.049C827.272 171.382 822.772 172.065 820.022 172.566C817.272 173.067 812.997 173.739 810.522 174.06C808.047 174.382 802.406 175.306 797.986 176.115C793.566 176.923 788.616 177.764 786.986 177.983C783.846 178.404 779.647 179.169 775.522 180.069C773.267 180.561 771.384 180.91 765.022 182.016C763.922 182.207 761.897 182.598 760.522 182.886C753.39 184.378 732.202 188.917 726.522 190.169C722.947 190.957 719.122 191.794 718.022 192.028C716.922 192.261 712.422 193.352 708.022 194.45C703.622 195.549 698.792 196.664 697.288 196.927C695.785 197.19 694.172 197.642 693.704 197.931C693.236 198.22 691.542 198.695 689.938 198.985C688.334 199.275 683.984 200.388 680.272 201.458C676.56 202.528 673.522 203.194 673.522 202.938C673.522 202.683 672.703 202.912 671.701 203.448C670.7 203.984 666.312 205.381 661.951 206.552C657.59 207.723 651.997 209.273 649.522 209.996C647.047 210.719 640.072 212.74 634.022 214.488C627.972 216.236 622.572 218.155 622.022 218.752C621.342 219.49 621.388 219.633 622.165 219.198C622.794 218.846 626.394 217.849 630.165 216.983ZM479.711 210.692C488.339 206.827 497.339 202.992 499.711 202.17C502.082 201.348 508.972 198.582 515.022 196.022C528.513 190.314 540.225 185.828 575.022 173.041C585.709 169.114 628.353 154.44 630.022 154.115C630.863 153.951 649.175 148.271 657.522 145.585C658.897 145.142 662.722 143.987 666.022 143.017C669.322 142.048 673.71 140.648 675.772 139.907C677.835 139.166 679.522 138.778 679.522 139.044C679.522 139.31 681.21 138.901 683.272 138.135C685.335 137.37 689.172 136.186 691.801 135.506C694.429 134.825 696.409 134.098 696.201 133.89C695.837 133.526 687.919 135.172 678.522 137.565C676.047 138.195 673.318 138.857 672.457 139.035C669.05 139.739 656.852 142.77 654.022 143.617C652.372 144.11 646.972 145.657 642.022 147.054C637.072 148.451 630.547 150.294 627.522 151.149C624.497 152.004 620.897 153.124 619.522 153.637C618.147 154.151 616.122 154.755 615.022 154.981C613.922 155.206 610.997 156.098 608.522 156.962C606.047 157.827 599.972 159.876 595.022 161.516C590.072 163.156 583.647 165.374 580.744 166.445C577.841 167.516 575.236 168.383 574.955 168.371C574.279 168.344 561.229 173.413 544.522 180.192C537.097 183.205 530.347 185.821 529.522 186.005C527.474 186.463 502.861 197.485 493.022 202.35C488.622 204.525 482.097 207.675 478.522 209.35C471.768 212.515 459.896 219.096 462.522 218.22C463.347 217.945 471.082 214.558 479.711 210.692ZM1319.26 158.948C1318.78 158.464 1306.86 154.697 1300.53 153.026C1299.7 152.808 1293.4 151.008 1286.53 149.024C1279.65 147.041 1273.24 145.222 1272.28 144.981C1271.31 144.741 1269.74 144.33 1268.78 144.068C1264.77 142.978 1246.84 138.472 1244.53 137.975C1243.15 137.679 1238.65 136.585 1234.53 135.544C1230.4 134.503 1225.71 133.418 1224.1 133.132C1220.26 132.451 1211.17 130.576 1204.28 129.044C1200.18 128.135 1186.09 125.481 1182.53 124.95C1180.6 124.663 1178.35 124.239 1177.53 124.009C1176.7 123.779 1174.23 123.329 1172.03 123.009C1169.83 122.689 1167.35 122.245 1166.53 122.022C1160.2 120.311 1152.65 119.717 1128.53 119.033C1117.25 118.713 1107.04 118.246 1105.84 117.994C1104.63 117.742 1103.37 117.988 1103.03 118.54C1102.65 119.149 1104.1 119.571 1106.72 119.613C1109.09 119.651 1112.38 119.852 1114.03 120.06C1116.85 120.415 1121.68 120.987 1131.03 122.072C1138.48 122.938 1144.02 123.635 1146.53 124.024C1150.92 124.707 1155.89 125.419 1161.03 126.101C1163.78 126.467 1166.93 126.943 1168.03 127.161C1169.13 127.378 1172.95 128.022 1176.53 128.592C1180.1 129.163 1184.15 129.835 1185.53 130.087C1186.9 130.338 1190.73 130.991 1194.03 131.538C1197.33 132.085 1200.93 132.707 1202.03 132.92C1203.13 133.134 1206.05 133.672 1208.53 134.117C1211 134.562 1213.25 134.979 1213.53 135.044C1213.8 135.109 1216.05 135.526 1218.53 135.971C1222.84 136.747 1224.44 137.069 1228.28 137.942C1229.24 138.161 1235.88 139.552 1243.03 141.034C1256.07 143.737 1257.82 144.117 1261.53 145.044C1267.19 146.459 1268.22 146.698 1270.53 147.128C1271.9 147.383 1282.93 150.236 1295.03 153.468C1316.83 159.289 1320.42 160.101 1319.26 158.948ZM351.184 117.402C363.881 103.023 365.864 100.551 365.217 99.9045C364.478 99.1665 359.578 104.045 354.92 110.158C352.776 112.971 348.652 118.258 345.755 121.908C337.943 131.75 340.082 129.974 351.184 117.402Z" fill="black"/>
</svg>
