<?xml version="1.0" encoding="UTF-8"?> <svg xmlns="http://www.w3.org/2000/svg" width="97" height="104" viewBox="0 0 97 104" fill="none"> <path fill-rule="evenodd" clip-rule="evenodd" d="M0.234375 48C0.234375 21.4903 21.7247 0 48.2344 0C74.744 0 96.2344 21.4903 96.2344 48C96.2344 74.5097 74.744 96 48.2344 96C21.7247 96 0.234375 74.5097 0.234375 48ZM52.3721 32.937C53.6218 31.6873 55.6479 31.6873 56.8976 32.937L69.1319 45.1713C70.694 46.7334 70.694 49.266 69.1319 50.8281L56.8976 63.0624C55.6479 64.3121 53.6218 64.3121 52.3721 63.0624V63.0624C51.1224 61.8128 51.1224 59.7866 52.3721 58.537L58.002 52.9071C58.6319 52.2771 58.1858 51.2 57.2949 51.2H29.0344C27.2671 51.2 25.8344 49.7673 25.8344 48V48C25.8344 46.2327 27.2671 44.8 29.0344 44.8H57.2955C58.1864 44.8 58.6325 43.7229 58.0026 43.0929L52.3721 37.4624C51.1224 36.2128 51.1224 34.1866 52.3721 32.937V32.937Z" fill="white"></path> </svg> 