<svg width="102" height="102" viewBox="0 0 102 102" fill="none" xmlns="http://www.w3.org/2000/svg">
<g filter="url(#filter0_d_165_40)">
<rect x="14" y="14" width="70" height="70" rx="14" fill="url(#paint0_linear_165_40)"/>
</g>
<g filter="url(#filter1_i_165_40)">
<mask id="path-2-inside-1_165_40" fill="white">
<path d="M65.9191 30.5999C66.3429 30.5999 66.6413 30.6787 66.7966 30.7385C66.9832 31.2351 67.2335 33.0147 65.3939 34.8555L56.0099 44.2389L56.0775 45.4031C56.2198 47.8393 56.4837 52.2053 56.7112 55.948C56.9121 59.2792 57.1026 62.4252 57.1149 62.693C57.1214 62.877 57.124 62.9206 56.9524 63.1273C56.5689 63.5933 55.8533 64.3831 55.2501 65.0376C54.3147 62.5176 52.3491 57.1947 51.2636 54.2151L49.8687 50.3814L46.9834 53.2668L41.6774 58.3686L40.9384 59.1064L40.9156 60.1496C40.8981 60.9823 40.902 62.4766 40.9039 63.7942C40.9065 64.712 40.9092 65.5459 40.9027 66.0055C40.891 66.0269 41.0801 66.0523 41.0626 66.0828C40.9495 65.9015 40.8279 65.7058 40.6992 65.5024C39.6293 63.7961 38.1486 61.436 37.6969 60.6995L37.3667 60.16L36.8246 59.8324C34.8531 58.6416 32.6691 57.2669 31.3366 56.4082C31.3828 56.3816 31.4204 56.5226 31.451 56.5063H31.5374C31.9567 56.5063 32.6496 56.5154 33.4263 56.5265C34.4423 56.5401 35.5947 56.557 36.4768 56.557C36.8148 56.557 37.1151 56.5544 37.3569 56.5492L38.4001 56.5252L39.1379 55.7874L44.2462 50.5179L47.1218 47.6436L43.3057 46.2396C40.4379 45.1847 34.9448 43.1332 32.3753 42.168C33.0344 41.5609 33.8287 40.84 34.2921 40.4565C34.4215 40.3499 34.5223 40.2953 34.5918 40.2953L34.6834 40.2979C34.9701 40.3116 38.5301 40.5443 41.9718 40.7692C45.6255 41.0077 49.7491 41.2768 52.0936 41.4257L53.2656 41.4991L62.6509 32.1131C63.9691 30.7969 65.2639 30.5999 65.9191 30.5999ZM65.9192 28C64.3832 28 62.4977 28.5902 60.8135 30.275L52.2576 38.8303C47.4385 38.5254 35.0963 37.709 34.7901 37.7006C34.7241 37.6972 34.658 37.6955 34.5919 37.6953C34.1752 37.6953 33.4557 37.7753 32.6367 38.4519C31.6753 39.2469 29.6707 41.1319 29.6707 41.1319C29.1871 41.6168 28.9421 42.2174 29.0006 42.7823C29.0363 43.1235 29.2216 43.7456 30.0594 44.0732C30.5684 44.2727 38.668 47.303 42.4082 48.6791L37.2998 53.9486C37.0736 53.9538 36.7934 53.9564 36.4769 53.9564C34.9195 53.9564 32.5047 53.9057 31.5368 53.9057C31.4088 53.9057 31.3061 53.9057 31.2332 53.9083C30.9388 53.9174 30.3291 53.7725 28.721 55.1167L28.6066 55.2233C28.1243 55.7056 28.0112 56.1866 28.0008 56.5044C27.9904 56.832 28.0781 57.3039 28.552 57.6835C28.8367 57.9136 32.4864 60.2504 35.4796 62.058C36.1973 63.2287 39.4993 68.4768 39.6715 68.7615C39.9231 69.1866 40.3345 69.429 40.8266 69.4446H40.8676C41.346 69.4446 41.8374 69.2074 42.3184 68.74C43.6795 67.1482 43.4916 66.4891 43.4974 66.2122C43.5189 65.3438 43.4825 61.6648 43.5137 60.2062L48.819 55.1037C50.1749 58.8282 53.1389 66.8446 53.3371 67.3549C53.6673 68.1927 54.2894 68.3767 54.6306 68.4111C54.6865 68.4176 54.7438 68.4202 54.7996 68.4202C55.3125 68.4202 55.8442 68.1791 56.2797 67.7436C56.2797 67.7436 58.1588 65.7494 58.957 64.779C59.7565 63.8092 59.7254 62.9811 59.7098 62.5904C59.7033 62.32 58.9505 50.0448 58.671 45.251L67.2289 36.6931C70.2619 33.6589 69.7796 30.0026 68.6531 28.8781C68.1559 28.3783 67.149 28.0001 65.9192 28Z"/>
</mask>
<path d="M66.7966 30.7385L69.605 29.6835C69.3037 28.8814 68.6739 28.2465 67.8744 27.9387L66.7966 30.7385ZM65.3939 34.8555L67.5152 36.9769L67.516 36.9761L65.3939 34.8555ZM56.0099 44.2389L53.8887 42.1175C53.2832 42.7229 52.9653 43.5581 53.0149 44.4128L56.0099 44.2389ZM56.0775 45.4031L53.0825 45.577L53.0826 45.5781L56.0775 45.4031ZM56.7112 55.948L59.7058 55.7674L59.7057 55.7659L56.7112 55.948ZM57.1149 62.693L60.113 62.5871C60.1127 62.5765 60.1122 62.5659 60.1117 62.5553L57.1149 62.693ZM56.9524 63.1273L54.6442 61.211L54.6359 61.221L56.9524 63.1273ZM55.2501 65.0376L52.4376 66.0815C52.8007 67.0598 53.6461 67.7792 54.67 67.981C55.6938 68.1828 56.749 67.838 57.4562 67.0706L55.2501 65.0376ZM51.2636 54.2151L48.4445 55.2409L48.4449 55.242L51.2636 54.2151ZM49.8687 50.3814L52.6879 49.3556C52.3374 48.3922 51.5191 47.6745 50.5182 47.4526C49.5173 47.2306 48.4724 47.5351 47.7474 48.2601L49.8687 50.3814ZM46.9834 53.2668L49.0627 55.4293C49.0768 55.4157 49.0908 55.4019 49.1047 55.3881L46.9834 53.2668ZM41.6774 58.3686L39.5981 56.2061C39.5846 56.2191 39.5712 56.2322 39.558 56.2454L41.6774 58.3686ZM40.9384 59.1064L38.8189 56.9832C38.2712 57.5299 37.956 58.2672 37.9391 59.041L40.9384 59.1064ZM40.9156 60.1496L37.9163 60.0842L37.9163 60.0864L40.9156 60.1496ZM40.9039 63.7942L37.9039 63.7986L37.9039 63.8027L40.9039 63.7942ZM40.9027 66.0055L43.5364 67.442C43.7699 67.014 43.8955 66.5354 43.9024 66.0479L40.9027 66.0055ZM41.0626 66.0828L38.517 67.6703C39.0752 68.5653 40.0623 69.1014 41.1169 69.0823C42.1714 69.0632 43.1385 68.4917 43.6639 67.5772L41.0626 66.0828ZM40.6992 65.5024L38.1576 67.0961L38.1639 67.1062L40.6992 65.5024ZM37.6969 60.6995L35.1381 62.2656L35.1397 62.2681L37.6969 60.6995ZM37.3667 60.16L39.9255 58.5939C39.6748 58.1843 39.3294 57.8409 38.9184 57.5925L37.3667 60.16ZM36.8246 59.8324L38.3763 57.2649L38.3756 57.2644L36.8246 59.8324ZM31.3366 56.4082L29.8364 53.8103C28.9309 54.3332 28.363 55.2898 28.3375 56.3351C28.312 57.3804 28.8327 58.3636 29.7116 58.93L31.3366 56.4082ZM31.451 56.5063V53.5063C30.9586 53.5063 30.4739 53.6275 30.0394 53.8592L31.451 56.5063ZM33.4263 56.5265L33.3837 59.5262L33.386 59.5262L33.4263 56.5265ZM37.3569 56.5492L37.4214 59.5485L37.426 59.5484L37.3569 56.5492ZM38.4001 56.5252L38.4693 59.5244C39.2408 59.5066 39.9758 59.1922 40.5215 58.6465L38.4001 56.5252ZM39.1379 55.7874L41.2592 57.9087C41.2702 57.8978 41.2811 57.8867 41.2919 57.8755L39.1379 55.7874ZM44.2462 50.5179L42.1254 48.3961C42.1143 48.4072 42.1032 48.4184 42.0922 48.4298L44.2462 50.5179ZM47.1218 47.6436L49.2427 49.7654C49.9665 49.0419 50.2716 47.9993 50.0519 46.9997C49.8323 46.0001 49.1182 45.1815 48.1577 44.8281L47.1218 47.6436ZM43.3057 46.2396L44.3416 43.4241L44.3414 43.424L43.3057 46.2396ZM32.3753 42.168L30.3428 39.9615C29.5767 40.6671 29.2315 41.7196 29.4308 42.742C29.63 43.7643 30.3453 44.6101 31.3203 44.9763L32.3753 42.168ZM34.2921 40.4565L32.3842 38.1414L32.3794 38.1453L34.2921 40.4565ZM34.5918 40.2953L34.6769 37.2965C34.6485 37.2957 34.6201 37.2953 34.5918 37.2953L34.5918 40.2953ZM34.6834 40.2979L34.8261 37.3013C34.8069 37.3004 34.7877 37.2997 34.7685 37.2991L34.6834 40.2979ZM41.9718 40.7692L41.7762 43.7628L41.7764 43.7628L41.9718 40.7692ZM52.0936 41.4257L51.9035 44.4196L51.906 44.4198L52.0936 41.4257ZM53.2656 41.4991L53.0779 44.4932C53.9372 44.5471 54.7782 44.2292 55.3869 43.6204L53.2656 41.4991ZM62.6509 32.1131L60.5312 29.9902L60.5295 29.9919L62.6509 32.1131ZM65.9192 28L65.9193 25H65.9192V28ZM60.8135 30.275L62.9348 32.3964L62.9352 32.3959L60.8135 30.275ZM52.2576 38.8303L52.0682 41.8243C52.9279 41.8787 53.7696 41.5608 54.3788 40.9517L52.2576 38.8303ZM34.7901 37.7006L34.6382 40.6967C34.6612 40.6979 34.6843 40.6988 34.7073 40.6994L34.7901 37.7006ZM34.5919 37.6953L34.5984 34.6953H34.5919L34.5919 37.6953ZM32.6367 38.4519L30.7259 36.1391L30.7248 36.14L32.6367 38.4519ZM29.6707 41.1319L27.6156 38.9465C27.5922 38.9684 27.5693 38.9907 27.5466 39.0134L29.6707 41.1319ZM29.0006 42.7823L26.0165 43.0913L26.0169 43.0948L29.0006 42.7823ZM30.0594 44.0732L31.1545 41.2802L31.152 41.2792L30.0594 44.0732ZM42.4082 48.6791L44.5622 50.7672C45.2687 50.0384 45.5587 49.0018 45.3331 48.0121C45.1074 47.0225 44.3966 46.2141 43.444 45.8636L42.4082 48.6791ZM37.2998 53.9486L37.3687 56.9479C38.1564 56.9298 38.9054 56.6025 39.4538 56.0368L37.2998 53.9486ZM31.2332 53.9083L31.3259 56.9069C31.3307 56.9068 31.3355 56.9066 31.3403 56.9064L31.2332 53.9083ZM28.721 55.1167L26.797 52.8149C26.7556 52.8495 26.7152 52.8852 26.6758 52.9219L28.721 55.1167ZM28.6066 55.2233L26.5614 53.0285C26.5356 53.0525 26.5102 53.077 26.4853 53.102L28.6066 55.2233ZM28.0008 56.5044L25.0024 56.4063L25.0023 56.4093L28.0008 56.5044ZM28.552 57.6835L30.4378 55.3503L30.4276 55.3422L28.552 57.6835ZM35.4796 62.058L38.0373 60.4902C37.7865 60.0811 37.4413 59.7381 37.0305 59.49L35.4796 62.058ZM39.6715 68.7615L42.2533 67.2335C42.2483 67.2252 42.2433 67.2168 42.2383 67.2085L39.6715 68.7615ZM40.8266 69.4446L40.7316 72.4431C40.7632 72.4441 40.7949 72.4446 40.8266 72.4446L40.8266 69.4446ZM42.3184 68.74L44.4089 70.8917C44.4752 70.8273 44.5385 70.7599 44.5985 70.6897L42.3184 68.74ZM43.4974 66.2122L40.4983 66.1381L40.4981 66.1493L43.4974 66.2122ZM43.5137 60.2062L41.4341 58.044C40.8621 58.5941 40.5313 59.3486 40.5144 60.142L43.5137 60.2062ZM48.819 55.1037L51.638 54.0774C51.2909 53.1239 50.4852 52.4105 49.4967 52.1813C48.5082 51.952 47.4708 52.238 46.7394 52.9415L48.819 55.1037ZM53.3371 67.3549L50.5408 68.4414C50.5426 68.4459 50.5443 68.4504 50.5461 68.4548L53.3371 67.3549ZM54.6306 68.4111L54.9771 65.4312C54.962 65.4294 54.9468 65.4278 54.9316 65.4262L54.6306 68.4111ZM56.2797 67.7436L58.4009 69.8651C58.4219 69.844 58.4427 69.8227 58.4631 69.801L56.2797 67.7436ZM58.957 64.779L56.6422 62.8707L56.6401 62.8733L58.957 64.779ZM59.7098 62.5904L56.7106 62.6625C56.711 62.6784 56.7115 62.6943 56.7122 62.7101L59.7098 62.5904ZM58.671 45.251L56.5497 43.1297C55.9442 43.7353 55.6263 44.5707 55.6761 45.4257L58.671 45.251ZM67.2289 36.6931L69.3503 38.8144L69.3507 38.814L67.2289 36.6931ZM68.6531 28.8781L66.5263 30.9939L66.5336 31.0013L68.6531 28.8781ZM65.9191 33.5999C65.9451 33.5999 65.9432 33.6023 65.9135 33.5968C65.8878 33.5921 65.8222 33.5779 65.7189 33.5382L67.8744 27.9387C67.3713 27.7451 66.7073 27.5999 65.9191 27.5999V33.5999ZM63.9883 31.7934C63.9215 31.6158 63.9218 31.5388 63.9242 31.5685C63.925 31.5787 63.9276 31.6315 63.9108 31.7175C63.8835 31.8572 63.7788 32.2276 63.2719 32.7349L67.516 36.9761C70.253 34.2372 70.1716 31.1918 69.605 29.6835L63.9883 31.7934ZM63.2727 32.7341L53.8887 42.1175L58.1311 46.3603L67.5152 36.9769L63.2727 32.7341ZM53.0149 44.4128L53.0825 45.577L59.0725 45.2291L59.0049 44.065L53.0149 44.4128ZM53.0826 45.5781C53.2252 48.0184 53.4893 52.3879 53.7168 56.13L59.7057 55.7659C59.4782 52.0227 59.2145 47.6602 59.0724 45.2281L53.0826 45.5781ZM53.7167 56.1285C53.8171 57.7948 53.9149 59.4132 53.9892 60.6492C54.0263 61.2672 54.0575 61.7884 54.0801 62.1715C54.0914 62.3632 54.1005 62.5191 54.1072 62.6348C54.1105 62.6927 54.1131 62.7392 54.1151 62.7744C54.116 62.792 54.1168 62.8059 54.1173 62.8163C54.1179 62.8275 54.1181 62.8315 54.1181 62.8308L60.1117 62.5553C60.0981 62.2589 59.905 59.0719 59.7058 55.7674L53.7167 56.1285ZM54.1168 62.7989C54.1199 62.8878 54.1142 62.7875 54.1195 62.6722C54.1271 62.5059 54.1557 62.2481 54.2554 61.95C54.3508 61.6646 54.4729 61.4583 54.5475 61.3453C54.6132 61.2457 54.6622 61.1894 54.6442 61.211L59.2607 65.0435C59.3474 64.9391 59.73 64.4977 59.9455 63.8533C60.0652 63.4954 60.1026 63.1793 60.1132 62.9466C60.1216 62.765 60.1131 62.5902 60.113 62.5871L54.1168 62.7989ZM54.6359 61.221C54.3144 61.6117 53.6557 62.3408 53.044 63.0046L57.4562 67.0706C58.0509 66.4253 58.8234 65.5749 59.269 65.0335L54.6359 61.221ZM58.0626 63.9937C57.1281 61.4759 55.1649 56.1594 54.0824 53.1882L48.4449 55.242C49.5334 58.2299 51.5014 63.5592 52.4376 66.0815L58.0626 63.9937ZM54.0828 53.1893L52.6879 49.3556L47.0496 51.4072L48.4445 55.2409L54.0828 53.1893ZM47.7474 48.2601L44.8621 51.1454L49.1047 55.3881L51.9901 52.5027L47.7474 48.2601ZM44.9041 51.1043L39.5981 56.2061L43.7568 60.5311L49.0627 55.4293L44.9041 51.1043ZM39.558 56.2454L38.8189 56.9832L43.0578 61.2295L43.7969 60.4918L39.558 56.2454ZM37.9391 59.041L37.9164 60.0842L43.9149 60.215L43.9377 59.1718L37.9391 59.041ZM37.9163 60.0864C37.8978 60.9625 37.902 62.5038 37.9039 63.7986L43.9039 63.7897C43.902 62.4494 43.8983 61.002 43.915 60.2128L37.9163 60.0864ZM37.9039 63.8027C37.9066 64.7367 37.909 65.5361 37.903 65.963L43.9024 66.0479C43.9093 65.5557 43.9065 64.6872 43.9039 63.7857L37.9039 63.8027ZM38.269 64.5689C38.159 64.7705 38.0626 65.0024 37.996 65.2624C37.9291 65.5238 37.8971 65.7955 37.9028 66.0704C37.9086 66.3443 37.9514 66.6004 38.0178 66.8327C38.0836 67.0633 38.1706 67.2634 38.2613 67.4317C38.3516 67.5994 38.4478 67.74 38.537 67.8545C38.6263 67.9691 38.7139 68.0644 38.7918 68.1417C38.9442 68.2928 39.0866 68.4016 39.1894 68.4734C39.295 68.5472 39.3891 68.6028 39.4603 68.6421C39.533 68.6822 39.5972 68.7138 39.6479 68.7374C39.7466 68.7834 39.8295 68.8156 39.8811 68.8348C39.9356 68.855 39.9816 68.8704 40.0125 68.8804C40.0442 68.8907 40.071 68.8988 40.0885 68.9041C40.1059 68.9094 40.121 68.9138 40.128 68.9158C40.13 68.9164 40.1318 68.9169 40.1332 68.9173C40.1347 68.9178 40.1356 68.918 40.1366 68.9183C40.1384 68.9188 40.1386 68.9189 40.138 68.9187C40.1373 68.9185 40.1298 68.9163 40.1188 68.9129C40.1078 68.9095 40.0887 68.9036 40.0644 68.8954C40.0405 68.8874 40.0046 68.875 39.9609 68.8583C39.9185 68.8421 39.8551 68.8168 39.7792 68.7815C39.7404 68.7635 39.6939 68.7408 39.642 68.7133C39.5905 68.6859 39.528 68.6507 39.4584 68.6071C39.3894 68.5638 39.3045 68.5065 39.2112 68.4336C39.1189 68.3616 39.0043 68.2634 38.8834 68.1359C38.7633 68.0092 38.6194 67.8352 38.485 67.6097C38.3492 67.3817 38.2156 67.0879 38.136 66.7326C38.0963 66.555 38.0712 66.3672 38.0652 66.1716C38.0591 65.9757 38.0723 65.7801 38.1043 65.5876C38.1691 65.1981 38.3038 64.8624 38.4613 64.5884L43.6639 67.5772C43.8224 67.3013 43.9578 66.9637 44.0229 66.5723C44.0551 66.3788 44.0684 66.1823 44.0623 65.9855C44.0562 65.789 44.031 65.6002 43.9911 65.4217C43.9111 65.0645 43.7767 64.7689 43.6398 64.539C43.5043 64.3117 43.359 64.1358 43.2371 64.0073C43.1145 63.878 42.9979 63.778 42.9032 63.7041C42.8076 63.6294 42.7201 63.5703 42.6483 63.5253C42.5758 63.4798 42.5102 63.4428 42.4554 63.4137C42.4001 63.3844 42.3501 63.36 42.3075 63.3402C42.2241 63.3014 42.1523 63.2726 42.1009 63.253C42.0482 63.2328 42.0027 63.217 41.9689 63.2057C41.9047 63.1842 41.8508 63.1683 41.8316 63.1627C41.8256 63.1609 41.8203 63.1594 41.8167 63.1584C41.8105 63.1565 41.8128 63.1572 41.8091 63.1561C41.8053 63.155 41.8098 63.1563 41.8171 63.1585C41.8243 63.1607 41.8413 63.1658 41.8638 63.1731C41.8854 63.1801 41.9227 63.1925 41.9692 63.2098C42.0129 63.226 42.0887 63.2554 42.1812 63.2985C42.2289 63.3207 42.2903 63.3508 42.3604 63.3895C42.429 63.4274 42.5208 63.4816 42.6244 63.554C42.6772 63.5908 42.7373 63.6353 42.8018 63.688C42.8661 63.7404 42.9394 63.8047 43.0169 63.8815C43.0941 63.9581 43.1811 64.0527 43.2698 64.1666C43.3585 64.2804 43.4543 64.4203 43.5442 64.5873C43.6345 64.755 43.7212 64.9544 43.7869 65.1843C43.8531 65.4159 43.8958 65.6713 43.9015 65.9446C43.9072 66.2187 43.8753 66.4898 43.8085 66.7505C43.7422 67.0098 43.646 67.241 43.5364 67.442L38.269 64.5689ZM43.6081 64.4953C43.4985 64.3196 43.3699 64.1125 43.2345 63.8986L38.1639 67.1062C38.286 67.2991 38.4004 67.4833 38.517 67.6703L43.6081 64.4953ZM43.2409 63.9086C42.164 62.1912 40.6957 59.8508 40.2541 59.1309L35.1397 62.2681C35.6015 63.0211 37.0947 65.401 38.1576 67.0961L43.2409 63.9086ZM40.2557 59.1334L39.9255 58.5939L34.8079 61.7261L35.1381 62.2656L40.2557 59.1334ZM38.9184 57.5925L38.3763 57.2649L35.2728 62.3999L35.8149 62.7275L38.9184 57.5925ZM38.3756 57.2644C36.4326 56.0908 34.2735 54.7318 32.9616 53.8864L29.7116 58.93C31.0648 59.802 33.2737 61.1924 35.2735 62.4003L38.3756 57.2644ZM32.8369 59.0062C32.6947 59.0882 32.5358 59.1643 32.3605 59.2276C32.1847 59.2911 31.9981 59.3399 31.8026 59.37C31.6071 59.4002 31.4116 59.4104 31.2191 59.402C31.0271 59.3937 30.8456 59.3672 30.677 59.3282C30.3413 59.2505 30.0683 59.126 29.8628 59.0075C29.6588 58.8898 29.5016 58.7667 29.3898 58.6685C29.277 58.5695 29.19 58.4776 29.1284 58.4078C29.066 58.3371 29.0174 58.275 28.9832 58.2294C28.9486 58.1832 28.9219 58.1445 28.9043 58.1184C28.8867 58.0922 28.8737 58.0719 28.8678 58.0627C28.8631 58.0553 28.8583 58.0476 28.8638 58.0563C28.8662 58.0602 28.8776 58.0785 28.8915 58.1C28.9056 58.1219 28.9297 58.1588 28.9606 58.203C28.9908 58.2463 29.0376 58.3112 29.0988 58.3863C29.13 58.4249 29.1682 58.4699 29.213 58.519C29.2576 58.568 29.3125 58.6251 29.3778 58.6864C29.4427 58.7474 29.5235 58.8181 29.6204 58.8918C29.717 58.9652 29.8377 59.0479 29.9826 59.1284C30.2685 59.2871 30.6982 59.4643 31.2446 59.5009C31.5192 59.5193 31.8036 59.5005 32.0887 59.4382C32.3731 59.376 32.6324 59.2762 32.8626 59.1535L30.0394 53.8592C30.2676 53.7375 30.525 53.6383 30.8076 53.5766C31.0907 53.5147 31.3731 53.4961 31.6458 53.5143C32.1882 53.5507 32.6139 53.7265 32.8957 53.883C33.0386 53.9624 33.1574 54.0437 33.2519 54.1155C33.3467 54.1876 33.4255 54.2566 33.4883 54.3157C33.6107 54.4307 33.6998 54.5344 33.7547 54.6019C33.8115 54.6718 33.854 54.7308 33.8799 54.7678C33.9064 54.8058 33.926 54.8359 33.9356 54.8508C33.9449 54.8653 33.9518 54.8764 33.9496 54.8729C33.9486 54.8712 33.9496 54.8729 33.948 54.8702C33.9471 54.8689 33.9459 54.8669 33.9444 54.8645C33.9415 54.8599 33.937 54.8527 33.9315 54.844C33.9209 54.8274 33.9031 54.7996 33.8806 54.7662C33.8581 54.7329 33.8264 54.6871 33.7869 54.6343C33.7477 54.582 33.694 54.5136 33.6265 54.437C33.5597 54.3614 33.4675 54.2643 33.3495 54.1606C33.2325 54.0579 33.0699 53.9308 32.8606 53.81C32.6498 53.6884 32.3713 53.5617 32.0301 53.4827C31.8587 53.443 31.6744 53.4162 31.4796 53.4077C31.2844 53.3992 31.0861 53.4096 30.8877 53.4402C30.4846 53.5024 30.1309 53.6402 29.8364 53.8103L32.8369 59.0062ZM31.451 59.5063H31.5374V53.5063H31.451V59.5063ZM31.5374 59.5063C31.9306 59.5063 32.5993 59.515 33.3837 59.5262L33.469 53.5268C32.6999 53.5158 31.9828 53.5063 31.5374 53.5063V59.5063ZM33.386 59.5262C34.3909 59.5397 35.5692 59.557 36.4768 59.557V53.557C35.6202 53.557 34.4937 53.5405 33.4666 53.5267L33.386 59.5262ZM36.4768 59.557C36.8278 59.557 37.151 59.5543 37.4214 59.5485L37.2924 53.5499C37.0791 53.5545 36.8017 53.557 36.4768 53.557V59.557ZM37.426 59.5484L38.4693 59.5244L38.331 53.526L37.2877 53.55L37.426 59.5484ZM40.5215 58.6465L41.2592 57.9087L37.0166 53.6661L36.2788 54.4038L40.5215 58.6465ZM41.2919 57.8755L46.4002 52.606L42.0922 48.4298L36.9839 53.6993L41.2919 57.8755ZM46.3671 52.6397L49.2427 49.7654L45.001 45.5218L42.1254 48.3961L46.3671 52.6397ZM48.1577 44.8281L44.3416 43.4241L42.2699 49.0551L46.086 50.4591L48.1577 44.8281ZM44.3414 43.424C41.4831 42.3726 35.9974 40.3239 33.4303 39.3596L31.3203 44.9763C33.8922 45.9425 39.3927 47.9967 42.27 49.0551L44.3414 43.424ZM34.4079 44.3745C35.0773 43.7579 35.8131 43.0918 36.2048 42.7677L32.3794 38.1453C31.8443 38.5882 30.9915 39.3639 30.3428 39.9615L34.4079 44.3745ZM36.2001 42.7716C36.1786 42.7893 36.0697 42.8787 35.8872 42.9771C35.7919 43.0284 35.6423 43.1008 35.446 43.1635C35.2532 43.225 34.9587 43.2953 34.5918 43.2953V37.2953C33.8366 37.2953 33.2768 37.5681 33.0416 37.6948C32.759 37.847 32.535 38.0171 32.3842 38.1414L36.2001 42.7716ZM34.5067 43.2941L34.5984 43.2967L34.7685 37.2991L34.6769 37.2965L34.5067 43.2941ZM34.5407 43.2945C34.5401 43.2945 34.5557 43.2953 34.5986 43.2978C34.6373 43.3001 34.6887 43.3032 34.7531 43.3072C34.8816 43.3151 35.0553 43.326 35.2685 43.3396C35.6945 43.3667 36.2725 43.4041 36.9502 43.448C38.3055 43.536 40.0551 43.6503 41.7762 43.7628L42.1675 37.7756C38.7574 37.5527 35.148 37.3166 34.8261 37.3013L34.5407 43.2945ZM41.7764 43.7628C45.4287 44.0013 49.5557 44.2706 51.9035 44.4196L52.2837 38.4317C49.9425 38.2831 45.8222 38.0142 42.1673 37.7755L41.7764 43.7628ZM51.906 44.4198L53.0779 44.4932L53.4532 38.505L52.2813 38.4315L51.906 44.4198ZM55.3869 43.6204L64.7723 34.2344L60.5295 29.9919L51.1442 39.3779L55.3869 43.6204ZM64.7707 34.236C65.1249 33.8823 65.4136 33.7369 65.5865 33.6721C65.7686 33.6039 65.8915 33.5999 65.9191 33.5999V27.5999C64.6211 27.5999 62.511 28.0133 60.5312 29.9902L64.7707 34.236ZM65.9192 25C63.6042 25 60.9504 25.8946 58.6918 28.154L62.9352 32.3959C64.045 31.2857 65.1623 31 65.9192 31V25ZM58.6923 28.1536L50.1363 36.7089L54.3788 40.9517L62.9348 32.3964L58.6923 28.1536ZM52.447 35.8362C47.7155 35.5369 35.2497 34.7121 34.8729 34.7017L34.7073 40.6994C34.6758 40.6985 34.8176 40.7063 35.2421 40.7331C35.6158 40.7566 36.1399 40.7903 36.7773 40.8315C38.0516 40.9139 39.7727 41.0262 41.6361 41.1479C45.3604 41.391 49.6548 41.6716 52.0682 41.8243L52.447 35.8362ZM34.9421 34.7044C34.8276 34.6986 34.713 34.6956 34.5984 34.6953L34.5853 40.6953C34.6029 40.6953 34.6206 40.6958 34.6382 40.6967L34.9421 34.7044ZM34.5919 34.6953C33.6673 34.6953 32.2125 34.9109 30.7259 36.1392L34.5475 40.7647C34.6072 40.7153 34.6455 40.6928 34.6601 40.685C34.6743 40.6772 34.6743 40.6788 34.6606 40.6831C34.6472 40.6873 34.6304 40.691 34.6129 40.6933C34.5956 40.6955 34.5858 40.6953 34.5919 40.6953L34.5919 34.6953ZM30.7248 36.14C30.1758 36.5941 29.3801 37.3146 28.7639 37.8805C28.4465 38.172 28.1603 38.4377 27.9536 38.6303C27.8501 38.7268 27.7662 38.8052 27.708 38.8598C27.6788 38.8871 27.656 38.9085 27.6404 38.9231C27.6326 38.9305 27.6265 38.9362 27.6224 38.9401C27.6203 38.942 27.6187 38.9436 27.6175 38.9446C27.617 38.9452 27.6165 38.9456 27.6162 38.9459C27.616 38.946 27.6159 38.9462 27.6158 38.9463C27.6157 38.9463 27.6157 38.9464 27.6157 38.9464C27.6156 38.9464 27.6156 38.9465 29.6707 41.1319C31.7259 43.3174 31.7258 43.3175 31.7258 43.3175C31.7258 43.3175 31.7258 43.3175 31.7258 43.3175C31.7259 43.3175 31.7259 43.3174 31.726 43.3173C31.7261 43.3172 31.7264 43.3169 31.7268 43.3165C31.7276 43.3158 31.7289 43.3146 31.7306 43.313C31.7341 43.3097 31.7394 43.3047 31.7465 43.298C31.7607 43.2847 31.782 43.2648 31.8095 43.239C31.8646 43.1874 31.9448 43.1124 32.0443 43.0197C32.2435 42.834 32.5185 42.5787 32.8225 42.2996C33.4489 41.7243 34.1362 41.1047 34.5485 40.7638L30.7248 36.14ZM27.5466 39.0134C26.5758 39.9868 25.8452 41.4374 26.0165 43.0913L31.9846 42.4732C32.0389 42.9974 31.7984 43.2469 31.7948 43.2505L27.5466 39.0134ZM26.0169 43.0948C26.1309 44.1834 26.7792 46.0117 28.9668 46.8672L31.152 41.2792C31.302 41.3379 31.5497 41.4983 31.7441 41.7973C31.9146 42.0594 31.9674 42.3089 31.9842 42.4697L26.0169 43.0948ZM28.9643 46.8662C29.5085 47.0795 37.6395 50.1213 41.3723 51.4946L43.444 45.8636C39.6965 44.4848 31.6283 41.466 31.1545 41.2802L28.9643 46.8662ZM40.2541 46.591L35.1458 51.8605L39.4538 56.0368L44.5622 50.7672L40.2541 46.591ZM37.2309 50.9494C37.0351 50.9539 36.7794 50.9564 36.4769 50.9564V56.9564C36.8074 56.9564 37.112 56.9538 37.3687 56.9479L37.2309 50.9494ZM36.4769 50.9564C35.7223 50.9564 34.7498 50.9441 33.8271 50.9314C32.924 50.9189 32.0477 50.9057 31.5368 50.9057V56.9057C31.9939 56.9057 32.8088 56.9179 33.7444 56.9308C34.6604 56.9434 35.6741 56.9564 36.4769 56.9564V50.9564ZM31.5368 50.9057C31.4335 50.9057 31.2658 50.9053 31.1262 50.9103L31.3403 56.9064C31.3327 56.9067 31.3422 56.9063 31.3835 56.906C31.4228 56.9058 31.4701 56.9057 31.5368 56.9057V50.9057ZM31.1406 50.9098C31.2984 50.9049 30.44 50.8527 29.5024 51.1721C28.6397 51.466 27.7632 52.0072 26.797 52.8149L30.645 57.4185C31.2869 56.882 31.5193 56.8236 31.437 56.8516C31.3762 56.8724 31.2749 56.896 31.1529 56.9046C31.102 56.9082 31.0675 56.9075 31.0775 56.9076C31.0812 56.9076 31.0861 56.9077 31.097 56.9079C31.1055 56.908 31.1233 56.9083 31.1408 56.9085C31.174 56.9088 31.2436 56.9095 31.3259 56.9069L31.1406 50.9098ZM26.6758 52.9219L26.5614 53.0285L30.6518 57.4181L30.7662 57.3115L26.6758 52.9219ZM26.4853 53.102C25.4002 54.1871 25.0346 55.423 25.0024 56.4063L30.9992 56.6026C30.9943 56.7517 30.9657 56.9087 30.9045 57.0588C30.841 57.2144 30.7644 57.3081 30.7279 57.3446L26.4853 53.102ZM25.0023 56.4093C24.9714 57.3835 25.2611 58.8912 26.6763 60.0249L30.4276 55.3422C30.6155 55.4927 30.787 55.7188 30.8926 55.9917C30.9894 56.2418 31.0038 56.4586 30.9993 56.5996L25.0023 56.4093ZM26.6662 60.0168C26.8896 60.1973 27.3459 60.4953 27.6952 60.723C28.1376 61.0115 28.7251 61.3886 29.3929 61.8124C30.728 62.6594 32.4082 63.7078 33.9288 64.6261L37.0305 59.49C35.5579 58.6007 33.9166 57.5768 32.6074 56.7461C31.953 56.3309 31.3876 55.9678 30.9721 55.6969C30.4634 55.3652 30.3567 55.2849 30.4377 55.3503L26.6662 60.0168ZM32.922 63.6259C33.2909 64.2278 34.3067 65.8498 35.2384 67.3357C35.708 68.0846 36.1576 68.8011 36.503 69.3521C36.6754 69.6271 36.8205 69.8587 36.9276 70.03C36.9812 70.1158 37.0246 70.1853 37.0567 70.2369C37.0929 70.295 37.1055 70.3156 37.1048 70.3145L42.2383 67.2085C42.0965 66.9741 38.6697 61.5218 38.0373 60.4902L32.922 63.6259ZM37.0898 70.2895C37.865 71.5993 39.2153 72.3951 40.7316 72.4431L40.9217 66.4462C41.1496 66.4534 41.4209 66.5177 41.685 66.6738C41.9493 66.83 42.1369 67.0369 42.2533 67.2335L37.0898 70.2895ZM40.8266 72.4446H40.8676V66.4446H40.8266V72.4446ZM40.8676 72.4446C42.3883 72.4446 43.5889 71.6884 44.4089 70.8917L40.2278 66.5884C40.0858 66.7264 40.3037 66.4446 40.8676 66.4446V72.4446ZM44.5985 70.6897C45.4408 69.7046 45.9964 68.7884 46.2808 67.874C46.5715 66.9392 46.5033 65.9629 46.4968 66.2751L40.4981 66.1493C40.496 66.2505 40.4986 66.3348 40.5001 66.3751C40.5009 66.3973 40.5017 66.4176 40.5022 66.4294C40.5029 66.4443 40.5031 66.4493 40.5034 66.456C40.5041 66.4743 40.5023 66.442 40.5041 66.3934C40.5083 66.2744 40.5282 66.167 40.5515 66.0921C40.5881 65.9744 40.5571 66.1837 40.0382 66.7904L44.5985 70.6897ZM46.4965 66.2863C46.5086 65.7993 46.5043 64.5987 46.5019 63.4243C46.4993 62.1987 46.4983 60.956 46.513 60.2704L40.5144 60.142C40.4978 60.915 40.4994 62.2411 40.5019 63.4368C40.5045 64.6836 40.5078 65.7567 40.4984 66.1381L46.4965 66.2863ZM45.5933 62.3684L50.8986 57.2659L46.7394 52.9415L41.4341 58.044L45.5933 62.3684ZM46 56.13C47.3522 59.8445 50.3284 67.8947 50.5408 68.4414L56.1335 66.2683C55.9494 65.7946 52.9975 57.8119 51.638 54.0774L46 56.13ZM50.5461 68.4548C51.4064 70.6377 53.2331 71.2854 54.3297 71.396L54.9316 65.4262C55.096 65.4428 55.3471 65.4957 55.6102 65.666C55.9099 65.8601 56.0699 66.107 56.1282 66.2549L50.5461 68.4548ZM54.2841 71.391C54.4771 71.4135 54.6526 71.4202 54.7996 71.4202V65.4202C54.835 65.4202 54.896 65.4217 54.9771 65.4312L54.2841 71.391ZM54.7996 71.4202C56.2545 71.4202 57.5156 70.7503 58.4009 69.8651L54.1585 65.6222C54.1728 65.6079 54.3705 65.4202 54.7996 65.4202V71.4202ZM56.2797 67.7436C58.4631 69.801 58.4631 69.801 58.4631 69.801C58.4632 69.8009 58.4632 69.8009 58.4633 69.8008C58.4634 69.8007 58.4635 69.8006 58.4636 69.8004C58.464 69.8001 58.4644 69.7996 58.4649 69.7991C58.466 69.7979 58.4675 69.7963 58.4695 69.7942C58.4734 69.79 58.4791 69.784 58.4864 69.7762C58.5011 69.7606 58.5225 69.7379 58.5497 69.7088C58.6043 69.6507 58.6826 69.567 58.779 69.4638C58.9714 69.2577 59.2367 68.9721 59.5281 68.655C60.0931 68.0401 60.8155 67.2421 61.274 66.6847L56.6401 62.8733C56.3004 63.2863 55.6841 63.9706 55.11 64.5954C54.8318 64.8982 54.5775 65.1719 54.3926 65.3699C54.3003 65.4689 54.2256 65.5486 54.1742 65.6033C54.1486 65.6307 54.1288 65.6517 54.1155 65.6658C54.1089 65.6729 54.104 65.6781 54.1007 65.6816C54.0991 65.6833 54.0979 65.6845 54.0972 65.6853C54.0968 65.6857 54.0966 65.686 54.0964 65.6861C54.0963 65.6862 54.0963 65.6863 54.0963 65.6863C54.0963 65.6863 54.0963 65.6863 54.0963 65.6863C54.0963 65.6863 54.0963 65.6862 56.2797 67.7436ZM61.2718 66.6873C62.7564 64.8866 62.7353 63.1686 62.7074 62.4707L56.7122 62.7101C56.7141 62.7597 56.7147 62.7783 56.7149 62.7948C56.7151 62.8083 56.7148 62.8125 56.7149 62.8112C56.7152 62.8063 56.7165 62.7899 56.7214 62.7696C56.7264 62.7486 56.731 62.7409 56.727 62.7489C56.7227 62.7575 56.7012 62.7992 56.6422 62.8707L61.2718 66.6873ZM62.7089 62.5183C62.7008 62.1801 61.9404 49.7839 61.666 45.0764L55.6761 45.4257C55.8161 47.8266 56.0744 52.098 56.2983 55.7981C56.4102 57.6494 56.5136 59.3581 56.5894 60.6209C56.6689 61.9456 56.7107 62.6665 56.7106 62.6625L62.7089 62.5183ZM60.7924 47.3724L69.3503 38.8144L65.1076 34.5718L56.5497 43.1297L60.7924 47.3724ZM69.3507 38.814C71.3716 36.7922 72.3151 34.4542 72.4907 32.315C72.6516 30.3558 72.1739 28.1539 70.7726 26.755L66.5336 31.0013C66.3512 30.8192 66.3854 30.7522 66.4472 30.969C66.4989 31.1505 66.542 31.4448 66.5109 31.824C66.451 32.5525 66.1192 33.5597 65.1072 34.5722L69.3507 38.814ZM70.78 26.7624C69.524 25.4998 67.6189 25.0001 65.9193 25L65.9191 31C66.2341 31.0001 66.4686 31.0495 66.6058 31.0956C66.6728 31.1181 66.699 31.1338 66.6914 31.1295C66.6869 31.1269 66.6208 31.0889 66.5263 30.9939L70.78 26.7624Z" fill="white" mask="url(#path-2-inside-1_165_40)"/>
</g>
<defs>
<filter id="filter0_d_165_40" x="0" y="0" width="102" height="102" filterUnits="userSpaceOnUse" color-interpolation-filters="sRGB">
<feFlood flood-opacity="0" result="BackgroundImageFix"/>
<feColorMatrix in="SourceAlpha" type="matrix" values="0 0 0 0 0 0 0 0 0 0 0 0 0 0 0 0 0 0 127 0" result="hardAlpha"/>
<feOffset dx="2" dy="2"/>
<feGaussianBlur stdDeviation="8"/>
<feComposite in2="hardAlpha" operator="out"/>
<feColorMatrix type="matrix" values="0 0 0 0 0.1125 0 0 0 0 0.1125 0 0 0 0 0.1125 0 0 0 0.2 0"/>
<feBlend mode="normal" in2="BackgroundImageFix" result="effect1_dropShadow_165_40"/>
<feBlend mode="normal" in="SourceGraphic" in2="effect1_dropShadow_165_40" result="shape"/>
</filter>
<filter id="filter1_i_165_40" x="28" y="28.0001" width="42.5215" height="42.4446" filterUnits="userSpaceOnUse" color-interpolation-filters="sRGB">
<feFlood flood-opacity="0" result="BackgroundImageFix"/>
<feBlend mode="normal" in="SourceGraphic" in2="BackgroundImageFix" result="shape"/>
<feColorMatrix in="SourceAlpha" type="matrix" values="0 0 0 0 0 0 0 0 0 0 0 0 0 0 0 0 0 0 127 0" result="hardAlpha"/>
<feOffset dx="1" dy="1"/>
<feGaussianBlur stdDeviation="0.5"/>
<feComposite in2="hardAlpha" operator="arithmetic" k2="-1" k3="1"/>
<feColorMatrix type="matrix" values="0 0 0 0 0 0 0 0 0 0 0 0 0 0 0 0 0 0 0.1 0"/>
<feBlend mode="normal" in2="shape" result="effect1_innerShadow_165_40"/>
</filter>
<linearGradient id="paint0_linear_165_40" x1="60.6667" y1="20.7742" x2="49.7191" y2="84.1243" gradientUnits="userSpaceOnUse">
<stop stop-color="#FB945A"/>
<stop offset="1" stop-color="#FF5520"/>
</linearGradient>
</defs>
</svg>
