<svg width="29" height="24" viewBox="0 0 29 24" fill="none" xmlns="http://www.w3.org/2000/svg">
<path fill-rule="evenodd" clip-rule="evenodd" d="M25.1838 0.164191C25.5292 0.0188087 25.9073 -0.0313328 26.2787 0.0189852C26.6501 0.0693032 27.0012 0.218242 27.2954 0.450298C27.5897 0.682355 27.8164 0.989046 27.9519 1.33845C28.0875 1.68785 28.1269 2.0672 28.066 2.437L24.8959 21.6664C24.5883 23.5212 22.5532 24.585 20.8521 23.661C19.4291 22.888 17.3157 21.6971 15.4147 20.4545C14.4642 19.8325 11.5526 17.8406 11.9104 16.4233C12.2179 15.2114 17.1102 10.6574 19.9058 7.94988C21.003 6.88616 20.5026 6.27253 19.2069 7.25098C15.9878 9.68034 10.8229 13.3747 9.11483 14.4147C7.60801 15.3316 6.82245 15.4882 5.88314 15.3316C4.16945 15.0465 2.58016 14.6048 1.28301 14.0666C-0.469814 13.3398 -0.384549 10.93 1.28162 10.2283L25.1838 0.164191Z" fill="white"/>
</svg>
